<?xml version="1.0" encoding="utf-8"?>
<!-- Generator: Adobe Illustrator 24.2.3, SVG Export Plug-In . SVG Version: 6.00 Build 0)  -->
<svg version="1.1" id="Layer_1" xmlns="http://www.w3.org/2000/svg" xmlns:xlink="http://www.w3.org/1999/xlink" x="0px" y="0px"
	 viewBox="0 0 1366 768" style="enable-background:new 0 0 1366 768;" xml:space="preserve">
<style type="text/css">
	.st0{fill:url(#SVGID_1_);}
	.st1{opacity:0.3;fill:url(#SVGID_2_);enable-background:new    ;}
	.st2{opacity:0.3;fill:url(#SVGID_3_);enable-background:new    ;}
	.st3{opacity:0.5;}
	.st4{opacity:0.3;}
	.st5{fill:none;stroke:#FFFFFF;stroke-width:1.2588;stroke-linejoin:round;stroke-miterlimit:10;}
	.st6{fill:none;stroke:#FFFFFF;stroke-width:0.8183;stroke-linejoin:round;stroke-miterlimit:10;}
	.st7{opacity:0.4;}
	.st8{opacity:0.4;fill:#FFFFFF;enable-background:new    ;}
	.st9{opacity:0.6;}
	
		.st10{opacity:0.3;fill:none;stroke:#FFFFFF;stroke-width:4.9051;stroke-linecap:round;stroke-miterlimit:10;enable-background:new    ;}
	.st11{fill:url(#SVGID_4_);}
	.st12{fill:#9297A5;}
	.st13{opacity:0.3;fill:#FFFFFF;enable-background:new    ;}
	.st14{fill:url(#SVGID_5_);}
	.st15{fill:url(#SVGID_6_);}
	
		.st16{opacity:0.5;fill:none;stroke:url(#SVGID_7_);stroke-linecap:round;stroke-miterlimit:10;stroke-dasharray:4;enable-background:new    ;}
	
		.st17{opacity:0.5;fill:none;stroke:url(#SVGID_8_);stroke-linecap:round;stroke-miterlimit:10;stroke-dasharray:4;enable-background:new    ;}
	
		.st18{opacity:0.5;fill:none;stroke:url(#SVGID_9_);stroke-linecap:round;stroke-miterlimit:10;stroke-dasharray:4;enable-background:new    ;}
	
		.st19{opacity:0.5;fill:none;stroke:url(#SVGID_10_);stroke-linecap:round;stroke-miterlimit:10;stroke-dasharray:4;enable-background:new    ;}
	.st20{fill:url(#SVGID_11_);}
	.st21{fill:url(#SVGID_12_);}
	.st22{fill:none;stroke:url(#SVGID_13_);stroke-linecap:round;stroke-miterlimit:10;}
	.st23{fill:none;stroke:url(#SVGID_14_);stroke-linecap:round;stroke-miterlimit:10;stroke-dasharray:4.08,4.08;}
	.st24{fill:none;stroke:url(#SVGID_15_);stroke-linecap:round;stroke-miterlimit:10;}
	.st25{fill:none;stroke:url(#SVGID_16_);stroke-linecap:round;stroke-miterlimit:10;}
	.st26{fill:none;stroke:url(#SVGID_17_);stroke-linecap:round;stroke-miterlimit:10;stroke-dasharray:4.01,4.01;}
	.st27{fill:none;stroke:url(#SVGID_18_);stroke-linecap:round;stroke-miterlimit:10;}
	
		.st28{opacity:0.5;fill:none;stroke:url(#SVGID_19_);stroke-linecap:round;stroke-miterlimit:10;stroke-dasharray:4;enable-background:new    ;}
	.st29{fill:#FF00FF;}
	.st30{opacity:0.7;}
	.st31{fill:#FFFFFF;}
	.st32{fill:none;stroke:#FFFFFF;stroke-width:0.81;stroke-miterlimit:10;}
	.st33{fill:none;stroke:#FF00FF;stroke-width:0.81;stroke-miterlimit:10;}
	.st34{fill:url(#SVGID_20_);}
	.st35{fill:none;stroke:url(#SVGID_21_);stroke-linecap:round;stroke-miterlimit:10;}
	.st36{fill:none;stroke:url(#SVGID_22_);stroke-linecap:round;stroke-miterlimit:10;stroke-dasharray:3.98,3.98;}
	.st37{fill:none;stroke:url(#SVGID_23_);stroke-linecap:round;stroke-miterlimit:10;}
	.st38{fill:none;stroke:url(#SVGID_24_);stroke-linecap:round;stroke-miterlimit:10;}
	.st39{fill:none;stroke:url(#SVGID_25_);stroke-linecap:round;stroke-miterlimit:10;stroke-dasharray:4.06,4.06;}
	.st40{fill:none;stroke:url(#SVGID_26_);stroke-linecap:round;stroke-miterlimit:10;}
	.st41{fill:none;stroke:#FFFFFF;stroke-width:1.19;stroke-miterlimit:10;}
	.st42{fill:url(#SVGID_27_);}
	.st43{fill:none;stroke:url(#SVGID_28_);stroke-linecap:round;stroke-miterlimit:10;}
	.st44{fill:none;stroke:url(#SVGID_29_);stroke-linecap:round;stroke-miterlimit:10;stroke-dasharray:3.88,3.88;}
	.st45{fill:none;stroke:url(#SVGID_30_);stroke-linecap:round;stroke-miterlimit:10;}
	.st46{fill:url(#SVGID_31_);}
	.st47{fill:none;stroke:url(#SVGID_32_);stroke-linecap:round;stroke-miterlimit:10;}
	.st48{fill:none;stroke:url(#SVGID_33_);stroke-linecap:round;stroke-miterlimit:10;stroke-dasharray:4,4;}
	.st49{fill:none;stroke:url(#SVGID_34_);stroke-linecap:round;stroke-miterlimit:10;}
	.st50{fill:#F5A46E;}
	.st51{fill:url(#SVGID_35_);}
	.st52{fill:url(#SVGID_36_);}
	.st53{fill:url(#SVGID_37_);}
	.st54{fill:url(#SVGID_38_);}
	.st55{fill:url(#SVGID_39_);}
	.st56{fill:#F9C199;}
	.st57{fill:url(#SVGID_40_);}
	.st58{fill:url(#SVGID_41_);}
	.st59{fill:url(#SVGID_42_);}
	.st60{fill:url(#SVGID_43_);}
	.st61{fill:url(#SVGID_44_);}
	.st62{fill:url(#SVGID_45_);}
	.st63{fill:url(#SVGID_46_);}
	.st64{opacity:0.9;}
	.st65{fill:#1B1464;}
	.st66{fill:#6DF2E5;}
	.st67{fill:#AEBED9;}
	.st68{fill:url(#SVGID_47_);}
	.st69{fill:url(#SVGID_48_);}
	.st70{fill:none;stroke:#CCCCCC;stroke-width:0.77;stroke-miterlimit:10;}
	.st71{fill:#777C82;}
	.st72{fill:#80868E;}
	.st73{opacity:0.6;fill:url(#SVGID_49_);enable-background:new    ;}
	.st74{fill:url(#SVGID_50_);}
	.st75{fill:#9EA4B4;}
	.st76{fill:url(#SVGID_51_);}
	.st77{fill:url(#SVGID_52_);}
	.st78{fill:url(#SVGID_53_);}
	.st79{opacity:0.5;fill:#80868E;enable-background:new    ;}
	.st80{fill:#676C70;}
	.st81{fill:url(#SVGID_54_);}
	.st82{fill:url(#SVGID_55_);}
	.st83{fill:url(#SVGID_56_);}
	.st84{fill:url(#SVGID_57_);}
	.st85{fill:url(#SVGID_58_);}
	.st86{fill:url(#SVGID_59_);}
	.st87{fill:url(#SVGID_60_);}
	.st88{fill:url(#SVGID_61_);}
	.st89{fill:url(#SVGID_62_);}
	.st90{fill:url(#SVGID_63_);}
	.st91{fill:url(#SVGID_64_);}
	.st92{opacity:0.9;fill:url(#SVGID_65_);enable-background:new    ;}
	.st93{fill:url(#SVGID_66_);}
</style>
<g id="BG">
	<g>
		
			<linearGradient id="SVGID_1_" gradientUnits="userSpaceOnUse" x1="686.3619" y1="-93.3818" x2="680.8141" y2="694.3937" gradientTransform="matrix(1 0 0 -1 0 768)">
			<stop  offset="1.405423e-02" style="stop-color:#7D58BA"/>
			<stop  offset="0.4272" style="stop-color:#7550A7"/>
			<stop  offset="1" style="stop-color:#383378"/>
		</linearGradient>
		<rect class="st0" width="1366" height="768"/>
		
			<linearGradient id="SVGID_2_" gradientUnits="userSpaceOnUse" x1="1.068115e-04" y1="420.9384" x2="947.3008" y2="420.9384" gradientTransform="matrix(1 0 0 -1 0 768)">
			<stop  offset="7.378472e-03" style="stop-color:#774FAA"/>
			<stop  offset="1" style="stop-color:#774FAA"/>
		</linearGradient>
		<path class="st1" d="M943.7,256.3c-1.4,0.6-2.9,0.6-4.3,0.6c-17.8,0-19.4,6.4-32.3,17.3c-25.9,21.9-71.4,5.6-95,29.8
			c-13,13.3-14.2,34.3-25.1,49.4c-4.6,6.4-10.5,11.2-17.2,14.7c-20.2,10.6-47.9,9-71.6,4.7c-31.5-5.8-67.5-12.8-92.8,6.8
			c-9,7-15.1,16.2-20,26.4c-11.5,24-16.2,53.4-35.5,72c-18.4,17.7-45.9,21.3-71.4,22.5c-32.3,1.5-65.7,0.2-95.2-13.2
			c-41.8-19-71.1-60.5-114.7-75c-30.7-10.2-64.8-5.5-95.7-15c-13-4-25.5-10.4-39.1-10.9c-19.3-0.6-37.7,11.1-57,9.1
			c-32.2-3.2-49.5-41.2-76.8-57v-144c17.8-3.5,36.7-0.5,54.8,11.6c6.8,4.6,12.7,10.7,20,14.4c25,12.7,59.9-5.2,81.5,12.6
			c20.4,16.8,24.6,38.5,54.6,43.3c16.5,2.7,33.5,0.9,50.1,3.2c19.6,2.8,38.4,11.2,58.2,11.7c11.8,0.3,23.5-2.2,35.2-1.2
			c15.6,1.4,30.4,9.1,46,7.8c9.9-0.8,19-5.2,27.9-9.6c19.1-9.3,40-16.8,58.6-26.4c16.6-8.6,28.7-22.6,47.7-27.2
			c50.5-11.9,99.4,46.1,149,31c30.5-9.3,48.3-43.5,78.8-52.8c41.4-12.6,81.1,25.8,124.3,29.3c13.9,1.1,52.8-13.3,60.1,5.4
			C948.1,250.9,946.8,255,943.7,256.3z"/>
		
			<linearGradient id="SVGID_3_" gradientUnits="userSpaceOnUse" x1="514.2141" y1="332.0158" x2="1366" y2="332.0158" gradientTransform="matrix(1 0 0 -1 0 768)">
			<stop  offset="7.378472e-03" style="stop-color:#774FAA"/>
			<stop  offset="1" style="stop-color:#774FAA"/>
		</linearGradient>
		<path class="st2" d="M1366,283.2v167.6c-0.4-0.1-0.9-0.2-1.3-0.3c-7.6-1.5-15.1-3-22.7-3.1c-2,0-4.1,0.1-6.1,0.3
			c-1.1,0.1-2.2,0.3-3.2,0.5c-8.8,1.6-17.1,5.5-25.4,9.3c0,0,0,0-0.1,0c-3.1,1.4-6.2,2.8-9.4,4.1c-30.1,11.9-64.4,9.9-94.2,22.5
			c-36.9,15.5-61.4,50.8-93.6,74.3c-2.2,1.6-4.5,3.2-6.9,4.8c-2.6,1.7-5.2,3.3-7.9,4.8c-7.2,4-14.7,7.2-22.5,9.8
			c-3.2,1.1-6.5,2.1-9.8,2.9c-19.9,5.4-40.9,7.2-61.6,7.9c-25.5,0.8-53.2-0.7-72.9-16.8c-6.6-5.4-11.8-12-16.2-19.2
			c-0.5-0.8-1-1.7-1.5-2.6c-0.5-0.9-1-1.8-1.5-2.7c-13.5-24.4-20.8-54.1-43.9-69.2c-26.8-17.6-62.1-7.7-93,0.5
			c-31,8.2-69.3,12.1-90-12.4c-12-14.2-14.9-35-28.9-47.2c-17.6-15.4-44.1-10.7-67.8-12.8c-10.6-1-20.7-3.3-29.2-9.4
			c-13.8-9.9-15.9-16.2-33.6-14.7c-1.5,0.1-3,0.2-4.4-0.2c-3.2-1.1-4.9-5.1-3.9-8.4c5.9-19.2,45.7-7.9,59.5-10.1
			c42.8-6.9,79.3-48.4,121.6-39c28.3,6.2,47.7,33.8,74.3,43.9c2.7,1,5.5,1.9,8.3,2.5c50.6,11.2,94.8-50.6,146.1-42.7
			c19.3,3,32.5,16,49.7,23.3c19.3,8.2,40.7,14,60.5,21.7c9.2,3.6,18.7,7.3,28.6,7.4c15.6,0.1,29.8-8.8,45.2-11.4
			c11.6-2,23.5-0.4,35.2-1.6c19.7-2.1,37.8-12,57.1-16.3c16.3-3.6,33.4-3.2,49.7-7.1c29.6-7.2,32-29.2,51-47.5
			C1317.5,280.9,1343.8,287.4,1366,283.2z"/>
		<g class="st3">
			<g>
				<g class="st4">
					<polygon class="st5" points="655.1,109.7 637.5,119.8 637.4,140.1 654.9,150.3 672.6,140.3 672.7,119.9 					"/>
					<line class="st5" x1="655" y1="130" x2="637.5" y2="119.8"/>
					<line class="st5" x1="672.7" y1="119.9" x2="655" y2="130"/>
					<line class="st5" x1="655" y1="130" x2="654.9" y2="150.3"/>
				</g>
			</g>
		</g>
		<g>
			<g>
				<g class="st4">
					<polygon class="st6" points="1220.5,396.8 1214.5,408.5 1221.6,419.6 1234.8,419 1240.9,407.3 1233.7,396.2 					"/>
					<line class="st6" x1="1227.7" y1="407.9" x2="1214.5" y2="408.5"/>
					<line class="st6" x1="1233.7" y1="396.2" x2="1227.7" y2="407.9"/>
					<line class="st6" x1="1227.7" y1="407.9" x2="1234.8" y2="419"/>
				</g>
			</g>
		</g>
		<g class="st7">
			<g>
				<path class="st8" d="M120.2,456.2l0.6,15.2c0.1,1.6,1.9,2.6,3.2,1.7l12.9-8.1c1.4-0.9,1.3-2.9-0.1-3.7l-13.5-7.1
					C121.9,453.5,120.1,454.6,120.2,456.2z"/>
			</g>
		</g>
		<g class="st9">
			<g>
				<path class="st8" d="M1061,55.1l-9,8.7c-1,0.9-0.6,2.5,0.7,2.9l12,3.5c1.3,0.4,2.5-0.8,2.2-2.1l-3-12.1
					C1063.6,54.6,1062,54.1,1061,55.1z"/>
			</g>
		</g>
		<g>
			<g>
				<path class="st8" d="M773.4,587.2l-2.1,11.2c-0.2,1.2,0.9,2.2,2.1,1.8l10.8-3.8c1.2-0.4,1.4-1.9,0.5-2.7l-8.7-7.5
					C775.1,585.5,773.6,586,773.4,587.2z"/>
			</g>
		</g>
		<path class="st10" d="M7.9,364.8c8.4,0,8.4,10.9,16.8,10.9s8.4-10.9,16.8-10.9s8.4,10.9,16.8,10.9s8.4-10.9,16.8-10.9
			s8.4,10.9,16.8,10.9s8.4-10.9,16.8-10.9s8.4,10.9,16.8,10.9"/>
		
			<linearGradient id="SVGID_4_" gradientUnits="userSpaceOnUse" x1="58.2308" y1="322.3365" x2="58.2308" y2="332.0225" gradientTransform="matrix(-1 0 0 -1 1366 768)">
			<stop  offset="7.378472e-03" style="stop-color:#7D58BA"/>
			<stop  offset="1" style="stop-color:#8F73E5"/>
		</linearGradient>
		<path class="st11" d="M1307.3,445.3l-3.2-8.5c-0.1-0.4,0.1-0.8,0.5-0.8h6.3c0.4,0,0.7,0.4,0.5,0.8l-3.2,8.5
			C1308.2,445.8,1307.5,445.8,1307.3,445.3z"/>
		<path class="st12" d="M536,402.4c0.7,0.1,0.9,0.7,0.9,1.3C536.7,403.1,536.4,402.5,536,402.4z"/>
		<path class="st13" d="M168.8,116.4h-9.5v-9.5c0-1.3-1-2.3-2.3-2.3s-2.3,1-2.3,2.3v9.5h-9.5c-1.3,0-2.3,1-2.3,2.3s1,2.3,2.3,2.3
			h9.5v9.5c0,1.3,1,2.3,2.3,2.3s2.3-1,2.3-2.3V121h9.5c1.3,0,2.3-1,2.3-2.3C171.2,117.4,170.1,116.4,168.8,116.4z"/>
	</g>
</g>
<g id="Chart">
	<g>
		
			<linearGradient id="SVGID_5_" gradientUnits="userSpaceOnUse" x1="682.3325" y1="29.5576" x2="689.048" y2="522.4648" gradientTransform="matrix(1 0 0 -1 0 768)">
			<stop  offset="1.000000e-02" style="stop-color:#7D58BA"/>
			<stop  offset="1" style="stop-color:#7D60C4"/>
		</linearGradient>
		<path class="st14" d="M1366,362.1v404.4H0V612.4l2-0.8c50.5-21.2,99.1-19.1,151.8-7.1c47,10.7,97.4,26.6,145.5,11.8
			c13.5-4.1,27.3-11.5,41.7-12c11.5-0.4,19.8,2.6,31.8,0.2c24.9-4.9,47-18.8,69.1-30.3c26.3-13.8,63.1-29.2,93-16.7
			c30.6,12.8,54.8,39.6,87.8,51.9c22.5,8.3,46.4,13.8,70.5,12.5c48.2-2.6,82.3-43.1,120.7-67.2c21.3-13.4,47.2-27.3,70.9-18.4
			c8.6,3.3,15.9,9.3,24.4,12.8c20.4,8.3,61.2,1.9,105.8-40.6c31-29.5,53.2-50.7,96.4-42.7c45.8,8.5,103.3,17.8,139.9-13.4
			C1273.6,433.6,1317.6,366.2,1366,362.1z"/>
		
			<linearGradient id="SVGID_6_" gradientUnits="userSpaceOnUse" x1="0" y1="275.9" x2="1366" y2="275.9" gradientTransform="matrix(1 0 0 -1 0 768)">
			<stop  offset="0" style="stop-color:#8F73E5"/>
			<stop  offset="0.21" style="stop-color:#9270E6"/>
			<stop  offset="0.4" style="stop-color:#9C65E8"/>
			<stop  offset="0.57" style="stop-color:#AE54EC"/>
			<stop  offset="0.73" style="stop-color:#C63BF2"/>
			<stop  offset="0.89" style="stop-color:#E51BF9"/>
			<stop  offset="1" style="stop-color:#FF00FF"/>
		</linearGradient>
		<path class="st15" d="M1366,360v4l-1.2,0.1c-35,3-67.9,40.1-91.8,67.3c-8.4,9.5-15.6,17.6-21.4,22.6
			c-38.5,32.9-100.5,21.5-141.4,13.9c-42.3-7.8-64.2,13.1-94.6,42.1c-20.3,19.4-42,33.1-62.7,39.8c-15.3,4.9-29.5,5.8-40.8,2.7
			c-1.5-0.4-3-0.9-4.4-1.5c-4.3-1.7-8.2-4.1-12-6.3c-4.1-2.5-8-4.8-12.3-6.4c-22-8.3-46.2,3.8-69.1,18.2
			c-11,6.9-21.8,15.3-32.3,23.5c-26.7,20.7-54.3,42.1-89.2,44c-21.8,1.2-45-3-71.2-12.7c-17.7-6.6-32.9-17.3-47.6-27.7
			c-13.4-9.4-26-18.3-40.3-24.3c-29.6-12.4-66.3,3.5-91.2,16.6c-4,2.1-8,4.3-11.9,6.4c-18.1,9.8-36.9,20-57.6,24.1
			c-7.5,1.5-13.8,0.9-19.8,0.4c-3.9-0.3-7.8-0.7-12.2-0.6c-9.7,0.3-19.3,4-28.6,7.5c-4.1,1.5-8.4,3.2-12.5,4.4
			c-14.2,4.4-28.5,6.1-42.9,6.1c-28.6,0-57.3-6.9-85.5-13.6c-5.9-1.4-12.1-2.9-18-4.2c-60.9-13.9-105.8-11.8-150.4,7L0,614.5v-4.3
			l1.3-0.5c45.4-19.1,91.1-21.2,152.8-7.2c6,1.4,12.1,2.8,18.1,4.3c41.7,10,84.8,20.3,126.2,7.6c4.1-1.2,8.1-2.8,12.3-4.4
			c9.6-3.6,19.5-7.4,29.9-7.7c4.7-0.1,8.8,0.2,12.7,0.6c6,0.5,11.7,1.1,18.7-0.3c20.1-4,38.6-14,56.5-23.7c3.9-2.1,8-4.3,12-6.4
			c25.7-13.4,63.5-29.8,94.6-16.8c14.7,6.1,28.1,15.6,41,24.7c14.5,10.2,29.5,20.8,46.7,27.2c25.6,9.5,48.4,13.6,69.6,12.4
			c33.7-1.8,60.8-22.9,87-43.2c10.6-8.2,21.5-16.7,32.7-23.7c23.7-14.9,49-27.5,72.6-18.5c4.6,1.8,8.9,4.3,13,6.7
			c3.6,2.2,7.4,4.4,11.3,6c0.1,0,0.1,0.1,0.2,0.1c21.5,8.7,61.8-0.3,103.6-40.2c31.2-29.8,53.8-51.4,98.1-43.2
			c40.2,7.4,101,18.7,138.1-13c5.6-4.8,12.7-12.9,21-22.2c24.4-27.6,57.9-65.5,94.5-68.6L1366,360z"/>
		
			<linearGradient id="SVGID_7_" gradientUnits="userSpaceOnUse" x1="-2680.4399" y1="594.2" x2="-2679.4399" y2="594.2" gradientTransform="matrix(-1 0 0 1 -1813.38 2)">
			<stop  offset="1.000000e-02" style="stop-color:#8F73E5"/>
			<stop  offset="1" style="stop-color:#FFFFFF;stop-opacity:0.7"/>
		</linearGradient>
		<line class="st16" x1="866.6" y1="533.7" x2="866.6" y2="658.7"/>
		
			<linearGradient id="SVGID_8_" gradientUnits="userSpaceOnUse" x1="-2495.6799" y1="651.9" x2="-2494.6799" y2="651.9" gradientTransform="matrix(-1 0 0 1 -1813.38 2)">
			<stop  offset="1.000000e-02" style="stop-color:#8F73E5"/>
			<stop  offset="1" style="stop-color:#FFFFFF;stop-opacity:0.7"/>
		</linearGradient>
		<line class="st17" x1="681.8" y1="627.2" x2="681.8" y2="680.6"/>
		
			<linearGradient id="SVGID_9_" gradientUnits="userSpaceOnUse" x1="-2895.05" y1="541.1" x2="-2894.05" y2="541.1" gradientTransform="matrix(-1 0 0 1 -1813.38 2)">
			<stop  offset="1.000000e-02" style="stop-color:#8F73E5"/>
			<stop  offset="1" style="stop-color:#FFFFFF;stop-opacity:0.7"/>
		</linearGradient>
		<line class="st18" x1="1081.2" y1="467.9" x2="1081.2" y2="618.3"/>
		
			<linearGradient id="SVGID_10_" gradientUnits="userSpaceOnUse" x1="-2326.01" y1="583.95" x2="-2325.01" y2="583.95" gradientTransform="matrix(-1 0 0 1 -1813.38 2)">
			<stop  offset="1.000000e-02" style="stop-color:#8F73E5"/>
			<stop  offset="1" style="stop-color:#FFFFFF;stop-opacity:0.7"/>
		</linearGradient>
		<line class="st19" x1="512.1" y1="555.8" x2="512.1" y2="616.1"/>
		
			<linearGradient id="SVGID_11_" gradientUnits="userSpaceOnUse" x1="679.3926" y1="-75.6239" x2="694.7278" y2="338.6984" gradientTransform="matrix(1 0 0 -1 0 768)">
			<stop  offset="1.000000e-02" style="stop-color:#7D58BA"/>
			<stop  offset="1" style="stop-color:#8F73E5"/>
		</linearGradient>
		<path class="st20" d="M1366,441.6V768H0.4v-1.5l0.7-69.7v-2.2c14.3-5.9,27.6-13.1,44.2-21.2c62.2-30.3,135.9-37.4,202.2-17.1
			c35,10.7,69.6,28.6,106,24.6c55.8-6.2,115.4-64.1,171.6-64.8c66.7-0.9,102.4,78.9,167.9,65.7c21-4.2,39-17.6,59.6-23.4
			c42.6-12,88.9,10.1,131.8-0.8c24.6-6.2,44.1-22.2,65.9-34.1c21.2-11.6,38.5-10.9,59.7-17.1c22.6-6.5,42.5-18,62.7-28.7
			c9.9-5.3,20-10.4,30.4-14.6c15-6.1,30.9-10.4,48.6-10.9c28.5-0.8,61.5,6.1,82-13.7c7.7-7.4,12.7-17.1,18.6-25.9
			c25.6-38.7,57-56.3,80.4-64.4c15.7-5.4,27.7-6.5,32.1-6.6C1365.3,441.6,1365.7,441.6,1366,441.6z"/>
		
			<linearGradient id="SVGID_12_" gradientUnits="userSpaceOnUse" x1="0" y1="199.7" x2="1366" y2="199.7" gradientTransform="matrix(1 0 0 -1 0 768)">
			<stop  offset="1.000000e-02" style="stop-color:#8F73E5"/>
			<stop  offset="0.36" style="stop-color:#8F73E5"/>
			<stop  offset="0.49" style="stop-color:#9276E6"/>
			<stop  offset="0.6" style="stop-color:#9A81E8"/>
			<stop  offset="0.7" style="stop-color:#A892EB"/>
			<stop  offset="0.79" style="stop-color:#BCABEF"/>
			<stop  offset="0.88" style="stop-color:#D6CBF5"/>
			<stop  offset="0.97" style="stop-color:#F5F2FD"/>
			<stop  offset="1" style="stop-color:#FFFFFF"/>
		</linearGradient>
		<path class="st21" d="M1366,439.6v4h-0.1c-0.2,0-0.7,0-1.3,0c-3.2,0.1-11.5,0.8-22.7,3.8c-4.7,1.3-10,3-15.7,5.3
			c-19.9,8.1-48.6,25.2-72.3,61c-1.5,2.2-2.9,4.5-4.3,6.7c-4.2,6.8-8.6,13.8-14.6,19.5c-16.5,16-40.6,15.2-63.8,14.5
			c-6.5-0.2-13.2-0.4-19.5-0.2c-32.7,0.9-58.4,14.7-85.6,29.3c-17.5,9.4-35.6,19.1-55.6,24.9c-7.4,2.1-14.3,3.5-21,4.7
			c-12.7,2.4-24.7,4.7-38.3,12.2c-6.5,3.5-12.9,7.5-19.1,11.3c-14.6,9.1-29.8,18.5-47.3,22.9c-21.5,5.4-43.9,2.8-65.7,0.2
			c-22-2.6-44.8-5.3-66.1,0.6c-9.2,2.6-18.2,6.8-26.8,10.9c-10.5,5-21.3,10.2-33,12.5c-35.3,7.1-62.6-12.5-89-31.5
			c-23.7-17-48.3-34.7-79.3-34.2c-29.1,0.4-59.9,16.8-89.6,32.6c-27,14.4-54.9,29.2-81.7,32.2c-27.9,3.1-54.9-6.6-81.1-15.9
			c-0.3-0.1-0.6-0.2-0.9-0.3c-8.1-2.9-16.5-5.9-24.8-8.4c-64.7-19.8-137.9-13.6-200.7,17c-5.1,2.5-9.9,4.9-14.5,7.2
			c-10.2,5.1-19.8,10-29.8,14.1L1,696.8l-1,0.4v-0.1v-4.2l0.4-0.2c9.8-4,19.4-8.9,29.5-13.9c4.6-2.3,9.4-4.7,14.6-7.2
			c63.7-31,137.9-37.3,203.6-17.2c8.6,2.6,17.4,5.8,25.8,8.8c1.5,0.5,3,1.1,4.5,1.6c24.4,8.7,49.5,17,74.9,14.1
			c26-2.9,53.6-17.6,80.3-31.8c30.2-16.1,61.4-32.7,91.5-33.1c32.3-0.4,57.4,17.6,81.7,35c26.9,19.3,52.3,37.5,85.9,30.8
			c11.2-2.2,21.8-7.3,32.1-12.2c8.8-4.2,17.8-8.5,27.4-11.2c22-6.2,45.2-3.4,67.6-0.7c21.4,2.5,43.5,5.2,64.2-0.1
			c16.9-4.3,31.8-13.5,46.2-22.5c6.2-3.9,12.7-7.9,19.2-11.5c14.2-7.7,26.5-10.1,39.5-12.6c6.6-1.3,13.4-2.6,20.6-4.7
			c19.1-5.5,36.5-14.8,53.5-23.8c0.5-0.2,0.9-0.5,1.4-0.7c14.6-7.8,29.5-15.8,45.6-21.6c13-4.6,26.7-7.8,41.7-8.2
			c6.5-0.2,13.2,0,19.8,0.2c22.4,0.7,45.6,1.4,60.9-13.4c5.6-5.4,9.8-12.2,13.9-18.8c1.4-2.2,2.9-4.6,4.4-6.8
			c17.9-27,38.6-43.7,56.6-53.9c0,0,0,0,0.1,0c6.8-3.8,13.1-6.8,18.8-9c18-7.1,32.9-8.8,38.7-8.9
			C1365.2,439.6,1365.6,439.6,1366,439.6z"/>
		
			<linearGradient id="SVGID_13_" gradientUnits="userSpaceOnUse" x1="972" y1="764.96" x2="972" y2="609.13" gradientTransform="matrix(1 0 0 1 0 2)">
			<stop  offset="1.000000e-02" style="stop-color:#8F73E5"/>
			<stop  offset="1" style="stop-color:#FFFFFF;stop-opacity:0.7"/>
		</linearGradient>
		<line class="st22" x1="972" y1="766.5" x2="972" y2="764.5"/>
		
			<linearGradient id="SVGID_14_" gradientUnits="userSpaceOnUse" x1="972" y1="764.96" x2="972" y2="609.13" gradientTransform="matrix(1 0 0 1 0 2)">
			<stop  offset="1.000000e-02" style="stop-color:#8F73E5"/>
			<stop  offset="1" style="stop-color:#FFFFFF;stop-opacity:0.7"/>
		</linearGradient>
		<line class="st23" x1="972" y1="760.4" x2="972" y2="615.7"/>
		
			<linearGradient id="SVGID_15_" gradientUnits="userSpaceOnUse" x1="972" y1="764.96" x2="972" y2="609.13" gradientTransform="matrix(1 0 0 1 0 2)">
			<stop  offset="1.000000e-02" style="stop-color:#8F73E5"/>
			<stop  offset="1" style="stop-color:#FFFFFF;stop-opacity:0.7"/>
		</linearGradient>
		<line class="st24" x1="972" y1="613.6" x2="972" y2="611.6"/>
		
			<linearGradient id="SVGID_16_" gradientUnits="userSpaceOnUse" x1="1308.1" y1="764.96" x2="1308.1" y2="459.14" gradientTransform="matrix(1 0 0 1 0 2)">
			<stop  offset="1.000000e-02" style="stop-color:#8F73E5"/>
			<stop  offset="1" style="stop-color:#FFFFFF;stop-opacity:0.7"/>
		</linearGradient>
		<line class="st25" x1="1308.1" y1="766.5" x2="1308.1" y2="764.5"/>
		
			<linearGradient id="SVGID_17_" gradientUnits="userSpaceOnUse" x1="1308.1" y1="764.96" x2="1308.1" y2="459.14" gradientTransform="matrix(1 0 0 1 0 2)">
			<stop  offset="1.000000e-02" style="stop-color:#8F73E5"/>
			<stop  offset="1" style="stop-color:#FFFFFF;stop-opacity:0.7"/>
		</linearGradient>
		<line class="st26" x1="1308.1" y1="760.4" x2="1308.1" y2="465.6"/>
		
			<linearGradient id="SVGID_18_" gradientUnits="userSpaceOnUse" x1="1308.1" y1="764.96" x2="1308.1" y2="459.14" gradientTransform="matrix(1 0 0 1 0 2)">
			<stop  offset="1.000000e-02" style="stop-color:#8F73E5"/>
			<stop  offset="1" style="stop-color:#FFFFFF;stop-opacity:0.7"/>
		</linearGradient>
		<line class="st27" x1="1308.1" y1="463.6" x2="1308.1" y2="461.6"/>
		
			<linearGradient id="SVGID_19_" gradientUnits="userSpaceOnUse" x1="-3031.6001" y1="505.75" x2="-3030.6001" y2="505.75" gradientTransform="matrix(-1 0 0 1 -1813.38 2)">
			<stop  offset="1.000000e-02" style="stop-color:#8F73E5"/>
			<stop  offset="1" style="stop-color:#FFFFFF;stop-opacity:0.7"/>
		</linearGradient>
		<line class="st28" x1="1217.7" y1="470.2" x2="1217.7" y2="545.3"/>
		<g class="st3">
			<path class="st29" d="M512.1,556.4c5.1,0,5.2-8,0-8S507,556.4,512.1,556.4z"/>
		</g>
		<g class="st30">
			<path class="st29" d="M681.5,626.2c5.1,0,5.2-8,0-8S676.3,626.2,681.5,626.2z"/>
		</g>
		<path class="st29" d="M1217.7,474.2c5.2,0,5.2-8,0-8S1212.6,474.2,1217.7,474.2z"/>
		<path class="st29" d="M1081.2,469.2c5.2,0,5.2-8,0-8S1076,469.2,1081.2,469.2z"/>
		<path class="st31" d="M1307.8,464.3c7.1,0,7.1-11,0-11S1300.7,464.3,1307.8,464.3z"/>
		<circle class="st32" cx="1307.8" cy="458.8" r="8.5"/>
		<path class="st29" d="M866.6,537.7c5.2,0,5.2-8,0-8S861.4,537.7,866.6,537.7z"/>
		<circle class="st33" cx="866.6" cy="533.7" r="6.2"/>
		
			<linearGradient id="SVGID_20_" gradientUnits="userSpaceOnUse" x1="866.568" y1="516.3805" x2="866.568" y2="506.7" gradientTransform="matrix(1 0 0 1 0 2)">
			<stop  offset="1.000000e-02" style="stop-color:#7D58BA"/>
			<stop  offset="1" style="stop-color:#8F73E5"/>
		</linearGradient>
		<path class="st34" d="M867.1,518l3.2-8.5c0.1-0.3,0-0.6-0.4-0.8c-0.1,0-0.1,0-0.2,0h-6.3c-0.3,0-0.6,0.3-0.6,0.6
			c0,0.1,0,0.1,0,0.2l3.2,8.5c0.1,0.3,0.5,0.5,0.8,0.3C866.9,518.3,867.1,518.2,867.1,518z"/>
		
			<linearGradient id="SVGID_21_" gradientUnits="userSpaceOnUse" x1="1138.5" y1="766.5" x2="1138.5" y2="550.33" gradientTransform="matrix(1 0 0 1 0 2)">
			<stop  offset="1.000000e-02" style="stop-color:#8F73E5"/>
			<stop  offset="1" style="stop-color:#FFFFFF;stop-opacity:0.7"/>
		</linearGradient>
		<line class="st35" x1="1138.5" y1="768" x2="1138.5" y2="766"/>
		
			<linearGradient id="SVGID_22_" gradientUnits="userSpaceOnUse" x1="1138.5" y1="766.5" x2="1138.5" y2="550.33" gradientTransform="matrix(1 0 0 1 0 2)">
			<stop  offset="1.000000e-02" style="stop-color:#8F73E5"/>
			<stop  offset="1" style="stop-color:#FFFFFF;stop-opacity:0.7"/>
		</linearGradient>
		<line class="st36" x1="1138.5" y1="762" x2="1138.5" y2="556.8"/>
		
			<linearGradient id="SVGID_23_" gradientUnits="userSpaceOnUse" x1="1138.5" y1="766.5" x2="1138.5" y2="550.33" gradientTransform="matrix(1 0 0 1 0 2)">
			<stop  offset="1.000000e-02" style="stop-color:#8F73E5"/>
			<stop  offset="1" style="stop-color:#FFFFFF;stop-opacity:0.7"/>
		</linearGradient>
		<line class="st37" x1="1138.5" y1="554.8" x2="1138.5" y2="552.8"/>
		<g class="st30">
			<path class="st31" d="M1138.5,556.5c7.1,0,7.1-11,0-11S1131.4,556.5,1138.5,556.5z"/>
		</g>
		
			<linearGradient id="SVGID_24_" gradientUnits="userSpaceOnUse" x1="774.5" y1="766.5" x2="774.5" y2="651.83" gradientTransform="matrix(1 0 0 1 0 2)">
			<stop  offset="1.000000e-02" style="stop-color:#8F73E5"/>
			<stop  offset="1" style="stop-color:#FFFFFF;stop-opacity:0.7"/>
		</linearGradient>
		<line class="st38" x1="774.5" y1="768" x2="774.5" y2="766"/>
		
			<linearGradient id="SVGID_25_" gradientUnits="userSpaceOnUse" x1="774.5" y1="766.5" x2="774.5" y2="651.83" gradientTransform="matrix(1 0 0 1 0 2)">
			<stop  offset="1.000000e-02" style="stop-color:#8F73E5"/>
			<stop  offset="1" style="stop-color:#FFFFFF;stop-opacity:0.7"/>
		</linearGradient>
		<line class="st39" x1="774.5" y1="761.9" x2="774.5" y2="658.4"/>
		
			<linearGradient id="SVGID_26_" gradientUnits="userSpaceOnUse" x1="774.5" y1="766.5" x2="774.5" y2="651.83" gradientTransform="matrix(1 0 0 1 0 2)">
			<stop  offset="1.000000e-02" style="stop-color:#8F73E5"/>
			<stop  offset="1" style="stop-color:#FFFFFF;stop-opacity:0.7"/>
		</linearGradient>
		<line class="st40" x1="774.5" y1="656.3" x2="774.5" y2="654.3"/>
		<g class="st30">
			<path class="st31" d="M773.9,659.9c7.1,0,7.1-11,0-11S766.8,659.9,773.9,659.9z"/>
		</g>
		<g class="st30">
			<path class="st31" d="M774.2,659.9c7.1,0,7.1-11,0-11S767.1,659.9,774.2,659.9z"/>
		</g>
		<circle class="st41" cx="774.2" cy="654.4" r="8.5"/>
		
			<linearGradient id="SVGID_27_" gradientUnits="userSpaceOnUse" x1="-2587.8613" y1="636.4665" x2="-2587.8613" y2="626.786" gradientTransform="matrix(-1 0 0 1 -1813.38 2)">
			<stop  offset="1.000000e-02" style="stop-color:#7D58BA"/>
			<stop  offset="1" style="stop-color:#8F73E5"/>
		</linearGradient>
		<path class="st42" d="M774,638.1l-3.2-8.5c-0.1-0.3,0-0.6,0.3-0.7c0.1,0,0.1,0,0.2,0h6.3c0.3,0,0.6,0.3,0.6,0.6c0,0.1,0,0.1,0,0.2
			l-3.2,8.5c-0.1,0.3-0.5,0.5-0.8,0.3C774.2,638.4,774,638.2,774,638.1z"/>
		<g class="st30">
			<path class="st31" d="M972,616.7c6.5,0,6.5-10.1,0-10.1S965.5,616.7,972,616.7z"/>
		</g>
		
			<linearGradient id="SVGID_28_" gradientUnits="userSpaceOnUse" x1="345.9" y1="766.5" x2="345.9" y2="680.09" gradientTransform="matrix(1 0 0 1 0 2)">
			<stop  offset="1.000000e-02" style="stop-color:#8F73E5"/>
			<stop  offset="1" style="stop-color:#FFFFFF;stop-opacity:0.7"/>
		</linearGradient>
		<line class="st43" x1="345.9" y1="768" x2="345.9" y2="766"/>
		
			<linearGradient id="SVGID_29_" gradientUnits="userSpaceOnUse" x1="345.9" y1="766.5" x2="345.9" y2="680.09" gradientTransform="matrix(1 0 0 1 0 2)">
			<stop  offset="1.000000e-02" style="stop-color:#8F73E5"/>
			<stop  offset="1" style="stop-color:#FFFFFF;stop-opacity:0.7"/>
		</linearGradient>
		<line class="st44" x1="345.9" y1="762.1" x2="345.9" y2="686.5"/>
		
			<linearGradient id="SVGID_30_" gradientUnits="userSpaceOnUse" x1="345.9" y1="766.5" x2="345.9" y2="680.09" gradientTransform="matrix(1 0 0 1 0 2)">
			<stop  offset="1.000000e-02" style="stop-color:#8F73E5"/>
			<stop  offset="1" style="stop-color:#FFFFFF;stop-opacity:0.7"/>
		</linearGradient>
		<line class="st45" x1="345.9" y1="684.6" x2="345.9" y2="682.6"/>
		<g class="st3">
			<path class="st31" d="M346,683.6c5.1,0,5.1-8,0-8S340.8,683.6,346,683.6z"/>
		</g>
		<circle class="st32" cx="345.9" cy="679.6" r="7"/>
		
			<linearGradient id="SVGID_31_" gradientUnits="userSpaceOnUse" x1="-2159.3613" y1="664.5666" x2="-2159.3613" y2="654.8861" gradientTransform="matrix(-1 0 0 1 -1813.38 2)">
			<stop  offset="1.000000e-02" style="stop-color:#7D58BA"/>
			<stop  offset="1" style="stop-color:#8F73E5"/>
		</linearGradient>
		<path class="st46" d="M345.4,666.2l-3.1-8.5c-0.1-0.3,0-0.6,0.3-0.8c0.1,0,0.1,0,0.2,0h6.3c0.3,0,0.6,0.3,0.6,0.6
			c0,0.1,0,0.1,0,0.2l-3.1,8.5c-0.1,0.3-0.5,0.5-0.8,0.3C345.6,666.5,345.4,666.3,345.4,666.2z"/>
		<g class="st30">
			<path class="st31" d="M346,685.1c7.1,0,7.1-11,0-11S338.9,685.1,346,685.1z"/>
		</g>
		<g class="st30">
			<path class="st31" d="M525.1,621.6c7.1,0,7.1-11,0-11S518,621.6,525.1,621.6z"/>
		</g>
		
			<linearGradient id="SVGID_32_" gradientUnits="userSpaceOnUse" x1="525.1" y1="766.5" x2="525.1" y2="613.58" gradientTransform="matrix(1 0 0 1 0 2)">
			<stop  offset="1.000000e-02" style="stop-color:#8F73E5"/>
			<stop  offset="1" style="stop-color:#FFFFFF;stop-opacity:0.7"/>
		</linearGradient>
		<line class="st47" x1="525.1" y1="768" x2="525.1" y2="766"/>
		
			<linearGradient id="SVGID_33_" gradientUnits="userSpaceOnUse" x1="525.1" y1="766.5" x2="525.1" y2="613.58" gradientTransform="matrix(1 0 0 1 0 2)">
			<stop  offset="1.000000e-02" style="stop-color:#8F73E5"/>
			<stop  offset="1" style="stop-color:#FFFFFF;stop-opacity:0.7"/>
		</linearGradient>
		<line class="st48" x1="525.1" y1="762" x2="525.1" y2="620.1"/>
		
			<linearGradient id="SVGID_34_" gradientUnits="userSpaceOnUse" x1="525.1" y1="766.5" x2="525.1" y2="613.58" gradientTransform="matrix(1 0 0 1 0 2)">
			<stop  offset="1.000000e-02" style="stop-color:#8F73E5"/>
			<stop  offset="1" style="stop-color:#FFFFFF;stop-opacity:0.7"/>
		</linearGradient>
		<line class="st49" x1="525.1" y1="618.1" x2="525.1" y2="616.1"/>
	</g>
</g>
<g id="arm">
	<g>
		<g>
			<path class="st50" d="M460.5,557.3c0,0,6.5,74.4,3.1,81.1c-3.4,6.7-14.8,7.6-23.7-0.2c-8.8-7.8-19.9-41.6-16-61
				c0,0-20-23.2-25-49.4c0,0-33.9-3.5-35.7-19.4s2.7-30.6,24.4-29.1c21.7,1.5,41.6,26.7,41.6,26.7S460.1,553,460.5,557.3z"/>
			
				<linearGradient id="SVGID_35_" gradientUnits="userSpaceOnUse" x1="805.0965" y1="136.7269" x2="933.5935" y2="187.6408" gradientTransform="matrix(-0.9924 0.1233 -0.1233 -0.9924 1380.1658 635.2162)">
				<stop  offset="0" style="stop-color:#F9C199"/>
				<stop  offset="1" style="stop-color:#F9C199;stop-opacity:0"/>
			</linearGradient>
			<path class="st51" d="M460.5,557.3c0,0,6.5,74.4,3.1,81.1c-3.4,6.7-14.8,7.6-23.7-0.2c-8.8-7.8-19.9-41.6-16-61
				c0,0-20-23.2-25-49.4c0,0-33.9-3.5-35.7-19.4s2.7-30.6,24.4-29.1c21.7,1.5,41.6,26.7,41.6,26.7S460.1,553,460.5,557.3z"/>
			
				<linearGradient id="SVGID_36_" gradientUnits="userSpaceOnUse" x1="1010.3007" y1="189.3042" x2="960.6658" y2="191.195" gradientTransform="matrix(-0.9924 0.1233 -0.1233 -0.9924 1380.1658 635.2162)">
				<stop  offset="0.3262" style="stop-color:#BF8260"/>
				<stop  offset="1" style="stop-color:#F5A46E;stop-opacity:0"/>
			</linearGradient>
			<path class="st52" d="M460.5,557.3c0,0,6.5,74.4,3.1,81.1c-3.4,6.7-14.8,7.6-23.7-0.2c-8.8-7.8-19.9-41.6-16-61
				c0,0-20-23.2-25-49.4c0,0-33.9-3.5-35.7-19.4s2.7-30.6,24.4-29.1c21.7,1.5,41.6,26.7,41.6,26.7S460.1,553,460.5,557.3z"/>
			<path class="st50" d="M378.8,484.1c12.9,21.9,46.8,20.2,46.8,20.2C429.2,528.7,461,560,461,560c1.3,16,8.6,37.8,15.3,50
				c6.7,12.1,19.8,18.3,30.9,13.7s8.1-13.3,6.6-25.4c-1.5-12.1-12.6-59.4-15.2-64.9c-2.3-4.8-22-48.9-32.1-65.3
				c-1.6-2.6-2.9-4.5-3.9-5.4c-7.3-6.9-56.5-21.7-56.5-21.7c-10.2-1.5-18.8,1.8-24.4,7.7C373.3,457.1,371.1,471.2,378.8,484.1z"/>
			
				<linearGradient id="SVGID_37_" gradientUnits="userSpaceOnUse" x1="993.0069" y1="206.122" x2="946.6812" y2="211.7946" gradientTransform="matrix(-0.9924 0.1233 -0.1233 -0.9924 1380.1658 635.2162)">
				<stop  offset="0.3262" style="stop-color:#BF8260"/>
				<stop  offset="1" style="stop-color:#F5A46E;stop-opacity:0"/>
			</linearGradient>
			<path class="st53" d="M378.8,484.1c12.9,21.9,46.8,20.2,46.8,20.2C429.2,528.7,461,560,461,560c1.3,16,8.6,37.8,15.3,50
				c6.7,12.1,19.8,18.3,30.9,13.7s8.1-13.3,6.6-25.4c-1.5-12.1-12.6-59.4-15.2-64.9c-2.3-4.8-22-48.9-32.1-65.3
				c-1.6-2.6-2.9-4.5-3.9-5.4c-7.3-6.9-56.5-21.7-56.5-21.7c-10.2-1.5-18.8,1.8-24.4,7.7C373.3,457.1,371.1,471.2,378.8,484.1z"/>
			
				<linearGradient id="SVGID_38_" gradientUnits="userSpaceOnUse" x1="745.7548" y1="318.7385" x2="933.8159" y2="202.0109" gradientTransform="matrix(-0.9924 0.1233 -0.1233 -0.9924 1380.1658 635.2162)">
				<stop  offset="0.7642" style="stop-color:#F9C199"/>
				<stop  offset="1" style="stop-color:#F9C199;stop-opacity:0"/>
			</linearGradient>
			<path class="st54" d="M387.2,478.9c3.8,6.1,9,11.4,15.2,15.2c8,4.9,19.4,4.5,23.7,13.1c4.2,8.3,6.6,16.7,11.8,24.7
				c6.7,10.1,14.5,19.6,23.1,28.1c1.3,16,8.6,37.8,15.3,50c6.7,12.1,19.8,18.3,30.9,13.7c11.1-4.6,8.1-13.3,6.6-25.4
				c-1.5-12.1-12.6-59.4-15.2-64.9c-2.3-4.8-22-48.9-32.1-65.3c-1.6-2.6-2.9-4.5-3.9-5.4c-7.3-6.9-56.5-21.7-56.5-21.7
				c-10.4-3.1-20.5,3-25.3,11.3c-0.5,0.9-0.6,2-0.5,3C380.2,463.5,382.8,471.8,387.2,478.9z"/>
			<path class="st50" d="M406.6,580.9c0,0,8,47.8,4.3,60.8c-3.6,13.1-20.6,11.6-26-2.2s-11.6-34.1-11.6-43c0,0-21.7-22.5-23.1-38.1
				c0,0-21-5.3-22.5-16.6s21.2-39.3,33.6-29.6c12.3,9.8,17.1,14.9,20.5,19.2C385.2,535.7,405.6,574.3,406.6,580.9z"/>
			
				<linearGradient id="SVGID_39_" gradientUnits="userSpaceOnUse" x1="1047.9641" y1="182.5966" x2="954.0226" y2="175.29" gradientTransform="matrix(-0.9924 0.1233 -0.1233 -0.9924 1380.1658 635.2162)">
				<stop  offset="0.3262" style="stop-color:#BF8260"/>
				<stop  offset="1" style="stop-color:#F5A46E;stop-opacity:0"/>
			</linearGradient>
			<path class="st55" d="M406.6,580.9c0,0,8,47.8,4.3,60.8c-3.6,13.1-20.6,11.6-26-2.2s-11.6-34.1-11.6-43c0,0-21.7-22.5-23.1-38.1
				c0,0-21-5.3-22.5-16.6s21.2-39.3,33.6-29.6c12.3,9.8,17.1,14.9,20.5,19.2C385.2,535.7,405.6,574.3,406.6,580.9z"/>
			<path class="st56" d="M609.2,375c-2.3,3.9-6.3,8.4-12.8,13.6c-23.5,18.7-57,11.3-57,11.3c-16.5,11.5-64.3,8-64.3,8
				c-27.7,24.2-55.9,31.1-69.1,33c-4.9,0.7-7.7,0.8-7.7,0.8c-2.1,3.5-7.1,16.6-14.1,31.5c-1,2-1.9,4.1-3,6.2
				c-0.8,1.6-1.6,3.2-2.4,4.8c-4.6,8.9-9.7,17.9-15.3,25.4c-0.7,1-1.4,1.9-2.1,2.8c-2.7,3.5-5.6,6.5-8.5,9.1
				c-1.6,1.4-3.1,2.9-4.6,4.4c-3.3,3.4-6.2,7-8.8,10.9c-2.8,4-5.2,8.3-7.4,12.7c-21.7,43.7-16.8,102.2-39.3,110.6
				c-46.3,17.3-72.4,10-101.7,20s-73.9,51.5-93.8,68.7c-4.8,4.1-14.2,11.1-25.9,19.3H0V614.3c18.2-5.4,38.3-12.2,54.8-20.2
				c40.7-19.8,70.8-42.8,92.4-55.2s121.5-98,139.4-115c17.9-17,44.7-21.4,63-26.8s82.4-31.3,90.5-34.4c8-3.1,18.8-9.7,31.5-8.9
				c12.7,0.8,87.9,4.5,101.5,3.9c0.8,0,1.6-0.1,2.4-0.1c13.8-0.3,34.6,1.8,34.6,1.8s0.7,0.7,1.2,2.1
				C612.4,364.1,613,368.6,609.2,375z"/>
			
				<linearGradient id="SVGID_40_" gradientUnits="userSpaceOnUse" x1="89.594" y1="-290.2908" x2="243.2249" y2="112.0759" gradientTransform="matrix(1 0 0 -1 0 768)">
				<stop  offset="0.3262" style="stop-color:#BF8260"/>
				<stop  offset="1" style="stop-color:#F5A46E;stop-opacity:0"/>
			</linearGradient>
			<path class="st57" d="M609.2,375c-2.3,3.9-6.3,8.4-12.8,13.6c-23.5,18.7-57,11.3-57,11.3c-16.5,11.5-64.3,8-64.3,8
				c-27.7,24.2-55.9,31.1-69.1,33c-4.9,0.7-7.7,0.8-7.7,0.8c-2.1,3.5-7.1,16.6-14.1,31.5c-1,2-1.9,4.1-3,6.2
				c-0.8,1.6-1.6,3.2-2.4,4.8c-4.6,8.9-9.7,17.9-15.3,25.4c-0.7,1-1.4,1.9-2.1,2.8c-2.7,3.5-5.6,6.5-8.5,9.1
				c-1.6,1.4-3.1,2.9-4.6,4.4c-3.3,3.4-6.2,7-8.8,10.9c-2.8,4-5.2,8.3-7.4,12.7c-21.7,43.7-16.8,102.2-39.3,110.6
				c-5,1.9-9.8,3.5-14.3,4.8c-2.3,0.7-4.5,1.3-6.7,1.9c-33.8,8.8-56.1,5-80.7,13.3c-29.3,10-73.9,51.5-93.8,68.7
				c-4.8,4.1-14.2,11.1-25.9,19.3H0V614.3c18.2-5.4,38.3-12.2,54.8-20.2c40.7-19.8,70.8-42.8,92.4-55.2s121.5-98,139.4-115
				c17.9-17,44.7-21.4,63-26.8s82.4-31.3,90.5-34.4c8-3.1,18.8-9.7,31.5-8.9c12.7,0.8,87.9,4.5,101.5,3.9c0.8,0,1.6-0.1,2.4-0.1
				c13.8-0.3,34.6,1.8,34.6,1.8s0.7,0.7,1.2,2.1C612.4,364.1,613,368.6,609.2,375z"/>
			
				<linearGradient id="SVGID_41_" gradientUnits="userSpaceOnUse" x1="792.9879" y1="197.4138" x2="1030.222" y2="415.7448" gradientTransform="matrix(-0.9924 0.1233 -0.1233 -0.9924 1380.1658 635.2162)">
				<stop  offset="0" style="stop-color:#F5A46E"/>
				<stop  offset="1" style="stop-color:#F5A46E;stop-opacity:0"/>
			</linearGradient>
			<path class="st58" d="M329.2,510.7c-5.4,11.4-13.2,21.6-22.9,29.8c10.8-2.3,22.2-2.5,33.1-3.8c3.8-5.6,8.3-10.7,13.4-15.3
				c22.6-19.9,40.9-72.2,45.4-79.8c0,0,38.9-0.6,76.9-33.8c0,0,47.8,3.5,64.3-8c0,0,33.6,7.4,57-11.3c6.5-5.2,10.5-9.7,12.8-13.6
				c-5.7,0.1-12.7,3.2-16.1,4.4c-5.2,2-10.3,3.6-15.4,4.9c-7,1.8-14.1,2.8-22,2.8c-2.1,0-4.3,0-6.2-1c-3.4-1.6-6.5-12.1-8.8-12.3
				c-2.1-0.2-2.3,10.7-2.5,11.9c-2.3,11.5-10.5,12.4-20.5,14c-8.6,1.4-17.3,2.2-26,2.6c-8,0.3-13.5,2-14.3-7.5
				c-0.2-2.6,0.7-11.7-3.4-9.5c-0.4,9.4-0.3,18.3-7.8,24.9c-6.5,5.7-14.8,8.9-23.1,11.3c-11.9,3.4-24.1,5.5-36.5,6.1
				c-7.2,0.4-14.1-3-19.7,3.4c-3.1,3.6-4.8,8.3-7.9,12c-2.7,3.3-6.4,5.7-10,8c-4.2,2.7-8.3,5.3-12.5,8c-3.4,2.2-6.9,4.4-10.9,5.4
				c-1.9,0.5-4.4,0.9-6.3,0.3c-1.1-0.4-2.8-2.3-4-1.7c-0.5,0.2-0.7,0.9-0.7,1.4c0.1,0.6,0.3,1.1,0.6,1.5c2.1,3.6,4.3,7.3,5,11.5
				c0.6,3.7-0.5,7.7-1.6,11.4C336.4,496.4,332.6,503.5,329.2,510.7z"/>
			<path class="st56" d="M292.1,538.8c0,0,67.8-17.7,85.9-16.8c0,0,44.1-19.4,65.4-30.5s55.7-31.6,85.2-24.2
				c29.5,7.4,24.9,33.2,23,39.3c-1.8,6.1-8.8,23.1-48.6,36.5s-38.9,10-51.8,16.2c-12.9,6.1-44.2,17.2-64,36.5S319,652,292.7,660
				s-71.4,1.1-67.8-27.9S235.9,551.8,292.1,538.8z"/>
			
				<linearGradient id="SVGID_42_" gradientUnits="userSpaceOnUse" x1="921.5964" y1="70.7673" x2="986.6295" y2="219.0044" gradientTransform="matrix(-0.9924 0.1233 -0.1233 -0.9924 1380.1658 635.2162)">
				<stop  offset="0" style="stop-color:#F5A46E"/>
				<stop  offset="1" style="stop-color:#F5A46E;stop-opacity:0"/>
			</linearGradient>
			<path class="st59" d="M292.1,538.8c0,0,67.8-17.7,85.9-16.8c0,0,44.1-19.4,65.4-30.5s55.7-31.6,85.2-24.2
				c29.5,7.4,24.9,33.2,23,39.3c-1.8,6.1-8.8,23.1-48.6,36.5s-38.9,10-51.8,16.2c-12.9,6.1-44.2,17.2-64,36.5S319,652,292.7,660
				s-71.4,1.1-67.8-27.9S235.9,551.8,292.1,538.8z"/>
			
				<linearGradient id="SVGID_43_" gradientUnits="userSpaceOnUse" x1="169.8981" y1="146.8005" x2="15.4409" y2="148.1379" gradientTransform="matrix(1 0 0 -1 0 768)">
				<stop  offset="0" style="stop-color:#F5A46E"/>
				<stop  offset="1" style="stop-color:#F5A46E;stop-opacity:0"/>
			</linearGradient>
			<path class="st60" d="M102.4,596.4C73.9,624.5,34.2,637.2,0,657.8v-36.5c27.6-8.2,54.7-17.7,79.5-32.2
				C89.9,583,123.7,575.3,102.4,596.4z"/>
			
				<linearGradient id="SVGID_44_" gradientUnits="userSpaceOnUse" x1="85.8605" y1="-70.1199" x2="122.2717" y2="144.5148" gradientTransform="matrix(1 0 0 -1 0 768)">
				<stop  offset="0" style="stop-color:#F5A46E"/>
				<stop  offset="1" style="stop-color:#F5A46E;stop-opacity:0"/>
			</linearGradient>
			<path class="st61" d="M218.6,671.3c-34.5,1.1-65.2,11.6-94.2,30.4c-30.5,19.8-57,45.1-86.4,66.3H0v-39.4c6-3.5,11.2-6.7,15.1-9.2
				c13.2-8.5,25.9-18,40.3-24.4c11.7-5.2,24.2-8.2,36.8-11C109.2,680.3,212,652.1,218.6,671.3z"/>
			
				<linearGradient id="SVGID_45_" gradientUnits="userSpaceOnUse" x1="795.6779" y1="254.412" x2="861.7668" y2="236.5129" gradientTransform="matrix(-0.9924 0.1233 -0.1233 -0.9924 1380.1658 635.2162)">
				<stop  offset="0.496" style="stop-color:#FCD7B6"/>
				<stop  offset="1" style="stop-color:#FCD7B6;stop-opacity:0"/>
			</linearGradient>
			<path class="st62" d="M519.2,522c-1.5,0.5-3.1,0.4-4.6-0.1c-3.4-1-5.1-4.8-6.4-8.1c-3.7-9.7-4.7-12.8-7.7-22.8
				c-0.9-2.9-1.7-6.1-0.5-8.9c1.3-2.9,4.4-4.5,7.3-5.6c7.4-3,8.7-3.9,16.6-5.3c4.4-0.8,12.3-0.1,17.5,2.6c3.9,2,7,6.5,8.6,11.8
				c3.9,13.6,0.9,21.6-8.8,27.3C534.9,516.6,529.5,518.8,519.2,522z"/>
			
				<linearGradient id="SVGID_46_" gradientUnits="userSpaceOnUse" x1="727.8496" y1="370.0178" x2="765.5615" y2="370.0178" gradientTransform="matrix(-0.9924 0.1233 -0.1233 -0.9924 1380.1658 635.2162)">
				<stop  offset="0.496" style="stop-color:#FCD7B6"/>
				<stop  offset="1" style="stop-color:#FCD7B6;stop-opacity:0"/>
			</linearGradient>
			<path class="st63" d="M585.9,365.4c-1.6,0.1-3.2,0.1-4.8-0.3c-2-0.5-3.6-1.8-5.2-3.2c-0.8-0.7-1.7-1.7-1.5-2.8
				c0.2-1.5,2.1-1.9,3.6-2c6.7-0.5,13.5-0.5,20.2,0c3.5,0.3,6.9,0.6,10.4,1.2c1.2,0.2,4.9,0.9,3.8,2.6c-0.2,0.4-1.2,1.1-2,1.4
				c-3.5,1.3-4.4,1.1-9.3,1.7C596,364.6,591,365.2,585.9,365.4z"/>
		</g>
	</g>
</g>
<g id="robot">
	<g class="st64">
		<path class="st65" d="M819.4,259.4c0,0-2.3,11.1-3.2,14.4s4.8,14.1,8.1,15.6s19.2,27.4,22.2,27.2s5.3-2.9,5.3-2.9
			c-6.1-13.2-5-28.6-1.3-42.4c1.2-4.5,5-13.4,2.1-17.8c-1.4-2.2-5.9-3.4-8.3-4C834.6,247.1,825.5,251.7,819.4,259.4z"/>
		<path class="st65" d="M842.6,360c1.2,1.4,4.5,2.3,5.3,4.1c0.7,1.6-0.1,3.5-1.4,4.7c-1.3,1.1-3.1,1.6-4.8,2
			c-6.6,1.4-13.6,1.2-20-0.9c-3.1-1.1-6.1-2.6-9.3-3.5c-1.4-0.4-2.9-0.7-4.2-1.5c-1.9-1.2-3-3.5-3.2-5.7c-0.3-2.3,0.2-4.5,0.6-6.8
			c0.3-1.6,0.6-3.1,0.9-4.7c0.1-0.7,0.3-1.5,0.7-2.1c0.4-0.7,1.1-1.1,1.8-1.5c9.5-5.6,20.5-8.6,31.6-8.3c6.1,0.1,3.6,3.8,2.5,7.6
			C841.7,347.5,841.5,358.8,842.6,360z"/>
		<path class="st65" d="M887.1,308.8c-0.1-0.6-0.1-1.2-0.5-1.7c-0.6-0.8-1.8-0.7-2.8-0.5c-5.8,0.9-11.8,2.3-16.6,5.8
			c-2.8,2.1-5,4.8-6.5,7.9c-2.5,5.4-2.2,12.8,2.6,16.3c3.3,2.4,7.7,2.5,11.7,2.3c5.5-0.3,11-1,16.4-2.1c1.8-0.4,3.7-0.9,5-2.2
			c1.5-1.7,1.5-4.5,0.3-6.4c-0.5-0.8-1.4-2-2.3-2.4c-1-0.4-2.2-0.1-3.2-0.8c-2-1.3-2.6-4.4-2.8-6.5
			C887.9,315.2,887.4,312,887.1,308.8z"/>
		<path class="st65" d="M983.3,368.4c-13,9-23.8,20.8-35.7,31.3s-25.5,19.9-41.2,22.5c-2.7,0.4-5.5,0.6-8-0.4
			c-4-1.6-6.3-6.1-6.4-10.4s1.7-8.5,3.8-12.2c9.5-16.8,26.5-27.9,42.3-38.9c16.8-11.6,33.3-24.2,45.6-40.4
			c5.1-6.7,9.5-14.1,16.1-19.3c6.6-5.2,16.3-7.7,23.4-3.3c6,3.7,8.5,11,9.7,17.9C1038.4,346.3,1004,354.1,983.3,368.4z"/>
		<path class="st65" d="M1367.7,196.9c-0.4,0-1,0-1.7,0v58.7c-0.3,2.4-0.6,3.7-0.9,3.8c-0.5,0.2-1.2,0.2-1.8,0.2
			c-31.8,3.4-64.5,2.4-96.4,3c-22.2,0.5-44.4,0.8-66.6,1c-16.1,0.1-32.4,0.2-48.4-1.6c-1-0.1-2-0.2-3-0.4c-3.2-0.4-5.9,0.3-9.1-1
			c-1-0.4-2-0.9-2.9-1.5c-0.7-0.4-1.4-0.9-2.1-1.3c-0.6-0.5-1.3-0.9-1.9-1.4c-0.6-1-1.4-1.8-2.5-2.4c-1.2-0.7-2.5-1-3.9-1.3
			c-8.1-1.8-16.5-2.2-24.8-1.2c-7.9,1-16,1.2-24,1.7c-0.8,0-1.6,0.1-2.4,0.1c-7.5,0.2-15.1-1-22.6-1.3c-6.1-0.2-13-0.7-19.9-0.5
			c-6.7,0.2-13.2,1.2-18.8,3.7c-6.6,3-13.5,6.1-20.3,8.8l0,0c-0.9,0.4-1.8,0.8-2.7,1.1l0,0c-5.7,2.3-11.3,4.3-16.3,5.8
			c-4.8,1.5-9.2,2.5-12.8,2.8l0,0c-1.3,0.1-2.6,0.2-3.6,0.1c-10.5-0.6-24.2,7-51.9-0.5l0,0l0,0l0,0c-1.3-0.3-2.7-0.7-4.1-1.2
			c-8.8-2.7-14.4-6.3-17.8-10.5c-0.9-1.1-1.7-2.3-2.3-3.6c-1.4-2.8-2.1-5.8-2.2-8.9l0,0c0-0.1,0-0.2,0-0.3l0,0
			c-0.2-4.6,0.8-9.5,2.1-14.4c0.2-0.8,0.5-1.7,0.7-2.5s0.5-1.6,0.7-2.4l0,0c0.5-1.8,1.1-3.5,1.6-5.2c0.1-0.2,0.1-0.4,0.2-0.6
			c1.6-5.2,2.8-10.3,3.4-15.5c0.7-5.8,0.6-11.8-0.5-17.7c-0.1-0.7-0.3-1.5-0.5-2.2c-0.9-3.9-2.2-7.8-2.2-11.9c0-3.5,1-7.2,3.6-9.5
			c0.4-0.4,0.8-0.7,1.3-1c2.1-1.2,4.5-1.5,6.9-1.8c26-3,52-5.8,78-8.4c21.8-2.2,43.4-7.5,65-11.5c26-4.8,51.9-9.8,78-14.1l0,0
			c0.9-0.1,1.8-0.3,2.7-0.4l0,0c1.4-0.2,2.9-0.5,4.4-0.7l0,0c7.4-1.2,14.7-2.3,22.1-3.3c4.8-0.7,9.8-1.4,14.7-1.5
			c21.3,0.2,176.2-24,203.8-28.3V197C1366.7,196.9,1367.3,196.9,1367.7,196.9z"/>
		<path class="st66" d="M1114.8,130.1c27.4-3.3,30.3,28.6,33.8,47.4c1.3,7,0.4,14.2,6.5,19c4.2,3.4,10.1,4.6,15.5,4.8
			c-4.2-0.6-8.4-1.9-11.7-4.5c-6.1-5-5.2-12.2-6.6-19.3c-3.5-18.9-6.4-50.6-32.6-48.3L1114.8,130.1z"/>
		<path class="st67" d="M1367.7,196.9c-0.4,0-1,0-1.7,0c-22.1,0.6-181.6,4.8-189.5,4.8c-1.9,0-3.8-0.1-5.8-0.4
			c-0.5-0.1-1-0.2-1.6-0.2c-0.5-0.1-1.1-0.2-1.6-0.3s-1-0.3-1.5-0.4c-0.3-0.1-0.5-0.2-0.8-0.2c-0.7-0.2-1.3-0.5-2-0.8
			c-0.2-0.1-0.4-0.2-0.6-0.3c-0.1-0.1-0.3-0.1-0.4-0.2l0,0l0,0l0,0c-0.2-0.1-0.3-0.2-0.5-0.2c-0.2-0.1-0.5-0.2-0.7-0.4
			c-0.2-0.1-0.4-0.3-0.7-0.4c-0.3-0.2-0.5-0.3-0.8-0.5c-0.2-0.1-0.3-0.2-0.5-0.4s-0.4-0.3-0.6-0.5s-0.3-0.3-0.5-0.5
			c-0.3-0.3-0.6-0.7-0.9-1c-0.2-0.3-0.5-0.6-0.7-0.9c-0.1-0.2-0.2-0.3-0.3-0.5c-0.1-0.2-0.2-0.3-0.3-0.5c-0.1-0.2-0.2-0.4-0.3-0.5
			c-0.1-0.2-0.2-0.4-0.3-0.6c-0.2-0.5-0.4-1.1-0.6-1.6c-0.1-0.2-0.1-0.4-0.2-0.6c-0.2-0.8-0.4-1.5-0.5-2.3c-0.2-0.8-0.3-1.6-0.4-2.4
			c-0.3-2.4-0.5-4.9-1-7.4c-0.1-0.4-0.1-0.7-0.2-1.1c-0.1-0.4-0.1-0.8-0.2-1.1c-0.1-0.4-0.2-0.9-0.2-1.3c-0.1-0.6-0.2-1.2-0.3-1.9
			c0-0.1,0-0.2-0.1-0.4c-0.1-0.5-0.2-1-0.3-1.5c-0.2-1.3-0.4-2.6-0.7-3.9c-0.1-0.3-0.1-0.7-0.2-1c-0.2-0.8-0.3-1.7-0.5-2.5
			c-0.3-1.6-0.7-3.3-1.1-4.9c-0.1-0.5-0.2-0.9-0.3-1.4c0-0.1-0.1-0.3-0.1-0.4c0-0.1-0.1-0.2-0.1-0.3c-0.1-0.5-0.2-0.9-0.4-1.4
			c-0.1-0.2-0.1-0.5-0.2-0.7c-0.3-0.9-0.5-1.8-0.8-2.7c-0.2-0.4-0.3-0.9-0.4-1.3c-0.1-0.2-0.2-0.4-0.2-0.7c-0.2-0.5-0.4-1.1-0.6-1.6
			c-0.1-0.1-0.1-0.3-0.2-0.4c-0.2-0.6-0.5-1.2-0.7-1.7c-0.2-0.4-0.4-0.8-0.6-1.2c-0.3-0.6-0.6-1.2-0.9-1.8c-0.1-0.2-0.2-0.4-0.3-0.6
			c-0.2-0.3-0.3-0.6-0.5-0.8c-0.2-0.3-0.4-0.7-0.6-1c-0.1-0.2-0.3-0.4-0.4-0.6c-0.2-0.3-0.4-0.5-0.6-0.8c-0.1-0.2-0.2-0.3-0.4-0.5
			c-0.2-0.3-0.5-0.6-0.7-0.9c-0.3-0.4-0.7-0.8-1-1.1s-0.6-0.6-0.9-0.9c0,0,0,0-0.1,0c-0.3-0.3-0.6-0.6-0.9-0.9
			c-0.2-0.2-0.5-0.4-0.7-0.6c-0.5-0.4-1-0.8-1.5-1.1c-0.2-0.2-0.5-0.3-0.7-0.4c-0.2-0.1-0.4-0.2-0.5-0.3s-0.2-0.1-0.4-0.2
			c-0.7-0.4-1.4-0.7-2.1-1c-0.2-0.1-0.4-0.1-0.6-0.2c-0.2-0.1-0.4-0.2-0.7-0.2c-0.3-0.1-0.5-0.2-0.8-0.2c-0.6-0.2-1.3-0.3-2-0.4
			c-0.2,0-0.4-0.1-0.5-0.1h-0.1h-0.1c-0.1,0-0.1,0-0.2,0s-0.3,0-0.4,0l0,0h-0.1c-0.2,0-0.4,0-0.7-0.1c-0.3,0-0.6-0.1-0.9-0.1
			c-1.2-0.1-2.5,0-3.9,0.1l0,0c-0.4,0-0.8,0.1-1.2,0.1L1366,86.1V197C1366.7,196.9,1367.3,196.9,1367.7,196.9z"/>
		<path class="st66" d="M1136.7,258.6c1.2,2.9,4.2,4.2,4.9,4.6c3.2,1.3,7.4,0.6,10.3-1c5.6-3.1,4.5-9.2,5.8-14.6
			c2.2-9.5,11.4-12.4,19.9-14.2c11.1-2.3,22.5-1.8,33.8-2c21.6-0.3,43.1-0.6,64.6-1.7c27-1.3,54-2.8,81-4.4c2.9-0.2,5.9-0.3,8.8-0.5
			c-2.9,0.2-6.7-2.7-11.1-2.2c-26.8,3.3-54,3.1-81,4.4c-21.5,1-43,1.4-64.6,1.7c-11.3,0.1-22.7-0.4-33.8,1.9
			c-8.5,1.8-17.8,4.6-19.9,14.2c-1.2,5.4-0.2,11.5-5.8,14.6C1145.9,261.5,1140.4,262.5,1136.7,258.6z"/>
		<path class="st67" d="M883.8,267.8c5.4,4.3,12.9,6.6,19.3,8.9c8,2.9,16,6,24.5,7c6.5,0.8,13.1,0,19.5-1.1
			c9.5-1.6,19.4-3.7,28.4-7.1c0.1,0,0.1,0,0.2-0.1c0.1,0,0.1,0,0.1,0L975,273c-11.7,3.3-24.3,1.2-20.3-13.6v-0.1c0-0.1,0-0.1,0-0.1
			c0.3-0.9,0.6-1.9,1-3c0,0,0,0,0-0.1c2-5.5,6-12.6,13.4-21.7c3.1-3.8,6.8-8,11.2-12.6c7.8-8.1,18.7-14.4,30.8-19.2
			c37.4-15,87.3-17,102.3-23.2c4.9-2,10-6.9,13.8-12.9c5.8-8.9,8.9-20.2,5.1-28.1c-7-14.4-42.6-7.4-55.3-6.3
			c-30.3,2.8-59.3,8.2-88.7,15.7c-33.2,8.5-68,6.3-101.4,13.3c-0.3,0.1,3.7,9.5,4,10.2c0.2,0.5,0.4,1.1,0.7,1.6
			c2,4.5,4.5,8,8.3,11.4c1.9,1.7,8.5,7,9.8,10.1c0.1,0,1-2.7,1-2.9v-0.1c0.1-0.1,0.3,0,0.6,0.4c1.1,1.2,1.7,2.7,2.8,4
			c2.1,2.6,4.4,5,6.5,7.6c0.4,0.5,0.9,1.1,1.3,1.6c1.7,2.1,3.3,4.3,4.9,6.5c2.6,3.6,4.9,7.4,6.9,11.4c0.4,0.7,0.7,1.5,1.1,2.3
			c0.6,1.4,1.1,2.8,1.5,4.2l0,0c4.4,16.8-7.3,34.5-20.3,41.4C902.2,278.5,884.7,268.3,883.8,267.8z"/>
		<path class="st66" d="M883.8,267.8c0.9,0.5,18.4,10.7,32.1,3.4c12.9-6.9,24.7-24.6,20.3-41.4v0.1c0.7,6.3-3.8,28.6-19.1,34.3
			s-28.4,3.1-32.1-3.4C881.3,254.2,876.4,263.6,883.8,267.8z"/>
		<path class="st67" d="M1140.4,262.5c0.4,0.2,0.8,0.4,1.3,0.7h-0.1c-0.2-0.1-0.4-0.2-0.6-0.3c-0.1,0-0.2-0.1-0.3-0.1
			c-0.2-0.1-0.4-0.2-0.5-0.3C1140.3,262.4,1140.3,262.5,1140.4,262.5z"/>
		<path class="st67" d="M1366,226.9V274c-21.2-1.3-111.5-6.6-138.5-6.7c-28.2,0-71.8,2-85.7-4.1c0.2,0.1,0.3,0.1,0.5,0.2
			c0.1,0,0.3,0.1,0.4,0.1c0.3,0.1,0.6,0.2,0.9,0.2c0.1,0,0.3,0,0.5,0.1c1,0.1,2.1,0.1,3.2,0c1.7-0.2,3.4-0.8,4.8-1.5
			c0,0,0.1,0,0.1-0.1c0.2-0.1,0.3-0.2,0.5-0.3c0.3-0.2,0.5-0.3,0.8-0.5c0.2-0.1,0.4-0.3,0.5-0.4c0.2-0.2,0.4-0.4,0.6-0.6
			c0.5-0.5,0.8-1.1,1.1-1.7c0.1-0.3,0.2-0.6,0.4-0.8c0.1-0.2,0.1-0.3,0.2-0.5c0.1-0.3,0.2-0.6,0.3-0.9c0.1-0.2,0.1-0.5,0.2-0.7
			c0.1-0.6,0.2-1.2,0.3-1.8c0.3-2,0.4-4.1,0.9-6.2c2.2-9.6,11.4-12.4,19.9-14.2c11.1-2.3,22.5-1.8,33.8-2
			c21.6-0.3,43.1-0.6,64.6-1.7c27-1.3,54-2.8,81-4.4c2.9-0.2,5.9-0.3,8.8-0.5L1366,226.9z"/>
		
			<linearGradient id="SVGID_47_" gradientUnits="userSpaceOnUse" x1="1140.8737" y1="505.6339" x2="1140.976" y2="504.9864" gradientTransform="matrix(1 0 0 -1 0 768)">
			<stop  offset="0" style="stop-color:#F2F2F2;stop-opacity:0.8"/>
			<stop  offset="1" style="stop-color:#F2F2F2;stop-opacity:0"/>
		</linearGradient>
		<path class="st68" d="M1140.4,262.5c0.4,0.2,0.8,0.4,1.3,0.7h-0.1c-0.2-0.1-0.4-0.2-0.6-0.3c-0.1,0-0.2-0.1-0.3-0.1
			c-0.2-0.1-0.4-0.2-0.5-0.3C1140.3,262.4,1140.3,262.5,1140.4,262.5z"/>
		
			<linearGradient id="SVGID_48_" gradientUnits="userSpaceOnUse" x1="1251.1957" y1="541.345" x2="1258.261" y2="496.5981" gradientTransform="matrix(1 0 0 -1 0 768)">
			<stop  offset="0" style="stop-color:#F2F2F2;stop-opacity:0.8"/>
			<stop  offset="1" style="stop-color:#F2F2F2;stop-opacity:0"/>
		</linearGradient>
		<path class="st69" d="M1366,226.9V274c-21.2-1.3-111.5-6.6-138.5-6.7c-28.2,0-71.8,2-85.7-4.1c0.2,0.1,0.3,0.1,0.5,0.2
			c0.1,0,0.3,0.1,0.4,0.1c0.3,0.1,0.6,0.2,0.9,0.2c0.1,0,0.3,0,0.5,0.1c1,0.1,2.1,0.1,3.2,0c1.7-0.2,3.4-0.8,4.8-1.5
			c0,0,0.1,0,0.1-0.1c0.2-0.1,0.3-0.2,0.5-0.3c0.3-0.2,0.5-0.3,0.8-0.5c0.2-0.1,0.4-0.3,0.5-0.4c0.2-0.2,0.4-0.4,0.6-0.6
			c0.5-0.5,0.8-1.1,1.1-1.7c0.1-0.3,0.2-0.6,0.4-0.8c0.1-0.2,0.1-0.3,0.2-0.5c0.1-0.3,0.2-0.6,0.3-0.9c0.1-0.2,0.1-0.5,0.2-0.7
			c0.1-0.6,0.2-1.2,0.3-1.8c0.3-2,0.4-4.1,0.9-6.2c2.2-9.6,11.4-12.4,19.9-14.2c11.1-2.3,22.5-1.8,33.8-2
			c21.6-0.3,43.1-0.6,64.6-1.7c27-1.3,54-2.8,81-4.4c2.9-0.2,5.9-0.3,8.8-0.5L1366,226.9z"/>
		<path class="st70" d="M856.5,260.4L856.5,260.4C856.4,260.4,856.4,260.4,856.5,260.4C856.4,260.4,856.4,260.4,856.5,260.4"/>
		<path class="st65" d="M886.6,291.1c-0.3,0.2-0.7,0.5-1,0.7c-1.1,1-1.6,1.9-3.2,2.4c-4.7,1.6-10.2,2.1-14.2-0.7
			c-1.6-1.1-2.8-2.7-4-4.3c-1.9-2.6-3.6-5.3-4.8-8.2c-1.4-3.4-2.2-7.1-2.3-10.8c0-2.6,0.3-5.1,1.1-7.6c2.2-7.1,8.5-12.7,15.7-14.2
			c1.2-0.2,2.4-0.3,3.6-0.1c2,0.4,3.7,1.7,4.8,3.4c1.5,2.2,1.6,4.5,1.9,7.1c1.1,7.9,1.4,16,4.4,23.4c0.9,2.2,1.9,4.1,0.6,6.3
			C888.6,289.8,887.6,290.4,886.6,291.1z"/>
		<path class="st71" d="M851,277.3c3.6,15,3.5,31.1,4.3,36.5s0.9,9.6,3.1,11.3c1.1,0.9,6,0.3,16.1-6.7c3.7-2.6,6.8-4.4,9.4-5.9
			c4.3-2.5,6.9-3.9,7.7-6.2c1.3-3.6-1.7-19.6-1.7-19.6s-3.3,2.6-7.5-1c-0.2-0.2-0.4-0.3-0.6-0.5l0,0c-0.7-0.5-1.6-1.1-2.6-1.8
			c-6.5-4.4-18.6-11.4-24.2-14.5c-6.3-3.5-5.8-10.4-5.7-11.1C849,258.4,847.6,263.3,851,277.3z"/>
		<path class="st66" d="M854.9,268.9c6.4,3.5,21.6,12.4,26.7,16.3c-0.5-0.6-7.6-7.7-14-11.2c-6.7-3.6-6.9-4.4-10.2-7.4
			s-5.3-7.3-3.9-7.7c1.4-0.4,2.7,1.3,2.8,1.5c-0.2-0.4-3.4-5.3-7.2-2.7l0,0C849.2,258.3,848.5,265.4,854.9,268.9z"/>
		<path class="st72" d="M823.2,269.8c1.6,1.3,32.9,9.3,48.7-6.6s8.9-42.7,8-58.2c-0.1-0.9-0.1-1.8-0.3-2.8
			c-1.4-10.1-7.2-19.4-10.6-24c-1.1-1.5-3.3-1.3-4.1,0.3C856.6,195.8,821.8,268.6,823.2,269.8z"/>
		<path class="st72" d="M805.4,347.8c3,4.4,4.7,3.4,19.2,1.8c2.2-0.3,4.3-0.7,6.2-1.1c10.3-2.7,15.6-8.7,17.7-11.9
			c2.5-3.8,3.4-22.9,3.4-22.9s-4.4,2-8.3-3.2c-0.2-0.2-0.4-0.5-0.6-0.7l0,0c-1.8-2.2-5-5.6-8.6-9.2c-6.2-6.2-13.6-13.2-17.6-16.8
			c-6.4-5.8-3.7-13.8-3.5-14.3c-0.3,0.4-3.4,5.5-3.4,22.9c0,18.2-4.5,36.6-5.1,43C804.1,341.5,802.4,343.4,805.4,347.8z"/>
		<path class="st66" d="M816.7,283.6c6.4,5.8,21.5,20.2,26.2,26.1c-0.4-0.6-6.5-10.9-13-16.7c-6.7-6-6.7-6.9-9.7-11.3
			c-2.1-3.1-3.7-7.1-3.1-10.9c0.1-0.7,0.5-1.1-0.2-1.5c-1.1-0.7-2.6-0.4-3.7,0C813,269.8,810.3,277.8,816.7,283.6z"/>
		<path class="st72" d="M803.9,357.7c0.1-0.7,0.3-1.2,0.6-1.3C804.1,356.6,803.8,357,803.9,357.7z"/>
		<path class="st72" d="M810.6,377.4c3.1,5.2,6.2,10.5,10.6,14.7c2.4,2.3,5.5,3.9,7.4,6.7c1.7,2.5,2.5,5.9,3.8,8.7
			c2,4.5,4.3,11.1,10.4,10.3c1.7-0.2,3.2-0.7,4.6-1.4c5.4-2.6,8.7-8.4,9.9-14.3c2.6-12.7-0.6-23.7-3.5-30.5
			c-0.1-0.2-0.2-0.4-0.3-0.6c-0.4-0.9-0.8-1.7-1.2-2.5c-2.8-5.3-6.4-8.6-9.7-8.4c0,0,5.7,3,5.3,5c-0.3,2-11.3,3.4-17.3,2.4
			c-3.8-0.6-11.3-1.6-17.2-2.9c-3.5-0.8-6.3-1.8-7.4-2.9c-1.6-1.6-2.1-3-2.2-3.9c-0.2,0.9-0.2,2-0.2,2.4
			C804,366.4,807.4,372.1,810.6,377.4z"/>
		<path class="st71" d="M858.8,330.9c0.1,0.7,0.2,1.5,0.3,1.8s0.2,0.6,0.3,0.9c1.7,4.7,5.4,8.4,8.8,11.9c3.6,3.6,7.2,7.4,11.6,10
			c2.4,1.4,5.3,2.1,7.5,4c1.9,1.7,3.3,4.4,4.8,6.4c2.5,3.3,5.7,8.3,10.6,6.4c2.7-1,4.7-2.8,6.2-5c2-3.1,2.9-7,2.7-10.8
			c-0.4-10.5-4.7-18.6-8.4-23.7c-0.3-0.4-0.6-0.9-0.9-1.3c-0.3-0.3-0.5-0.7-0.8-1c-3.6-4.3-7.5-6.7-10.4-5.8c0,0,5.3,1.4,5.4,3.1
			c0.1,1.7-8.6,5.1-13.8,5.4c-5.1,0.3-18.5,1.9-21.4,0.1C859.9,332.5,859.1,331.5,858.8,330.9c0-0.1,0-0.2,0-0.2
			C858.8,330.7,858.8,330.8,858.8,330.9z"/>
		<path class="st71" d="M858.8,330.6c0-0.6,0-1.1,0.2-1.2C858.7,329.6,858.6,330.1,858.8,330.6z"/>
		<path class="st66" d="M922.1,210.3c2.4,2.2,4.9,4.3,7.1,6.6c1.8,1.9,2.8,4.2,4.4,6.3c-8.1-16.7-22.2-28.2-23.8-34.6
			c-0.1,1.4-0.2,2.7-0.2,4.1c0,0.8-0.1,1.5,0.2,2.2c1.3,2.8,3.5,5.1,5.4,7.5C917.3,205.1,919.5,207.9,922.1,210.3z"/>
		<path class="st66" d="M955.1,271.3c0.3,0.5,1,0.9,1.5,1.4c0.6,0.6,1.3,1.1,2,1.5s1.4,0.8,2.2,1.1c0.5,0.2,1.1,0.5,1.6,0.6
			c0.6,0.2,1.2,0.2,1.8,0.3c2.5,0.2,4.9,0.1,7.4-0.2c1.2-0.1,2.4-0.3,3.6-0.4c0.5-0.1,0.6,0,0.6-0.5s-0.2-1-0.3-1.4l-0.8-4.1
			c-0.5-2.4-3-3.8-5.3-3.1c-3,1-6.9,2.1-10.2,1.9c-5.6-0.3-4.6-8-4.4-8.9c-0.2,1.4-0.6,2.7-0.8,4.1c-0.2,2.1-0.1,4.2,0.5,6.2
			C954.6,270.3,954.8,270.9,955.1,271.3z"/>
		<path class="st66" d="M969.2,234.5c4-3.2,9.7-7.5,18.4-14.9c28.1-23.9,88.4-25.6,95.2-26.3c6.9-0.8,29.5-2.3,41.9-15.5
			c11.4-12.1,9.7-30.2,9.2-33.7c0.1,0.5-0.5-2.3-0.5-1.8c-0.9,9.5-4.5,31-19.9,37.3c-19.9,8.1-101.1,9.1-133.1,42.4
			C975.9,226.5,972.3,230.7,969.2,234.5z"/>
		<path class="st66" d="M980.7,301.7c1.8,7.7,9.5,13.8,12.6,15.5c3.2,1.6,15.7,7.2,21.4,14.5c1,1.3,1.9,2.7,2.7,4.2
			c0.6,1.2,1.2,2.5,1.7,3.8c0.4,1.1,0.8,2.2,1.3,3.2c0.4,0.8,0.8,1.7,1.4,2.3c0.3,0.3,0.6,0.6,1,0.8c0.5,0.3,1,0.5,1.6,0.5
			c0.7,0,1.3-0.4,1.9-0.8c0.1-0.1,0.2-0.1,0.3-0.2c0,0,0.2-0.2,0.3-0.2c-2.9-0.4-4-8.3-9.2-14.9c-5.8-7.3-18.3-12.9-21.4-14.5
			c-3.2-1.6-10.8-7.7-12.6-15.5c-1.8-7.7,5.9-27.4,19.6-55.7c11.4-23.4,38.5-45.1,54.6-53.1c-15.6,6.6-45.4,29.6-57.4,54.4
			C986.6,274.3,978.9,294,980.7,301.7z"/>
		<path class="st67" d="M983.5,300.4c1.7,7,8.1,12.6,11.6,14.9c0.4,0.2,0.7,0.4,1,0.6c0.9,0.5,2.6,1.3,4.7,2.4
			c5.1,2.6,12.6,7,16.7,12.1c5.2,6.6,5.7,14.6,8.6,14.9c0.3,0,0.6,0,1-0.1c3.8-1.4,39.9-34.1,66.3-46c21.7-9.7,36.1-31.3,40.6-38.7
			c1-1.7,1.4-3.6,1.1-5.5c-1.3-8-5.7-30.5-17.2-39.8c-14.1-11.3-39.1-28.7-51.6-26.7c-2.2,0.3-5.1,1.4-8.5,3.1
			c-5.9,2.9-13.3,7.7-20.9,13.8c-13,10.4-26.5,24.5-33.7,39.3c-2.5,5-4.7,9.8-6.8,14.3l0,0C987,279.6,982,294.1,983.5,300.4z"/>
		<path class="st66" d="M955.8,325.6c4.1-2.2,8.5-1.3,14.7,1c8.3,3.1,15.2,3.3,29,11.7c7.9,4.8,11.5,11.1,13,15.6
			c1.1,3.3,0,6.9-2.8,9c-0.8,0.6-1.7,1.2-2.6,1.8c1.6-1,3.1-2,4.4-3c2.8-2.1,3.9-5.7,2.8-9c-1.6-4.5-5.1-10.8-13-15.6
			c-13.8-8.4-20.8-8.6-29-11.7C965.2,322.7,960.5,322.1,955.8,325.6z"/>
		<path class="st66" d="M803.9,357.7c0.1,0.9,0.6,2.3,2.2,3.9c2.8,2.9,18.5,4.8,24.6,5.8c6,1,17-0.4,17.3-2.4s-5.3-5-5.3-5
			s-0.8,0.8,3.2,3.2c2.1,1.3-0.4,2.3-1.7,2.6c-4.5,1.3-8.7,0.8-13.3,0.3c-4.4-0.5-8.7-1-13.1-1.7c-2.5-0.4-5.1-1-7.6-1.9
			c-1.6-0.6-4.1-1.5-4.8-3.3c-0.5-1.4,0-2.6-0.4-2.8c-0.1-0.1-0.6-0.1-0.6-0.1C804.2,356.5,804,357.1,803.9,357.7z"/>
		<path class="st67" d="M921.8,369.6c0.7,3,1,5,1.5,6.6c0.2,0.6,0.5,1.2,0.8,1.7c0.2,0.3,0.4,0.6,0.6,0.9c0.4,0.5,0.9,1.1,1.6,1.7
			c1.3,1.2,3.3,2.7,6.2,4.8c9.7,6.9,13.4,13.4,16.7,17c1.3,1.4,3.6,0.5,6.7-1.7c4.9-3.5,11.8-10.3,19.1-16c2.4-1.8,5-3.6,7.8-5.4
			c8.2-5.1,17.5-10,24.5-14.6c0.9-0.6,1.8-1.2,2.6-1.8c2.8-2.1,3.9-5.7,2.8-9c-1.6-4.5-5.1-10.8-13-15.6c-5.8-3.5-10.4-5.6-14.4-7.1
			c-5.5-2-9.8-2.8-14.6-4.6c-0.3-0.1-0.6-0.2-1-0.4c-0.2-0.1-0.4-0.1-0.6-0.2c-0.1,0-0.1,0-0.2-0.1c-0.3-0.1-0.5-0.2-0.8-0.3
			c-5-1.6-8.7-1.9-12.2-0.1c-1.3,0.7-2.6,1.7-3.9,3c-5.3,5.5-12,17.2-19.4,22C925.1,355.4,919.8,360.9,921.8,369.6z"/>
		<path class="st66" d="M896.6,376.5c0.3,2.7,4.9-2,8.9-1.1c6.1,1.3,15,10.2,25.6,16c7.7,4.2,12.6,12,14.7,15.8
			c0.7,1.3-1.9,4.7-0.7,3.9c1.5-1.1,3.3-3.8,2.6-5.1c-2.1-3.8-7-11.6-14.7-15.8c-10.5-5.8-19.5-14.7-25.6-16
			C902.9,373.2,899.9,374.2,896.6,376.5z"/>
		<path class="st67" d="M870.3,419.5c0.2,1.1,0.5,2.2,0.8,3.3c4.9,17.3,12,18.5,20.8,17.5c6.4-0.7,22.3-7.6,37.8-17.8l0.3-0.2
			c5.2-3.4,10.4-7.2,15.1-11.3c0.6-0.5,1-1.2,1.1-2l0,0c0.1-0.6,0-1.3-0.4-1.9c-2.1-3.8-7-11.6-14.7-15.8c-3.4-1.8-6.6-4-9.6-6.2
			c-1.8-1.3-3.6-2.6-5.2-3.8c-4.2-3-7.8-5.4-10.7-6.1c-4.1-0.9-11,1.2-17.2,5c0,0-0.1,0-0.1,0.1c-3,1.8-5.9,4.1-8.2,6.6
			C873.4,394.3,867.1,404.1,870.3,419.5z"/>
		<path class="st65" d="M806,362.6c0.5,0.3,2.3,2.7,2.5,3c0.7,1.3,1.1,2.8,1.2,4.3c0.1,0.6,0.1,1.2-0.1,1.8c-0.2,0.6-0.5,1-0.9,1.5
			c-1.3,1.3-3.1,2.1-4.9,2.5c-10.8,2.1-20.8-4.2-29.3-9.9c-2.3-1.5-4.6-3.1-6.3-5.2s-2.8-5-2.1-7.6c0.4-1.7,1.5-3.1,2-4.8
			c0.4-1.4,0.4-3,1-4.4c1-2.4,3.6-3.8,6-4.7c4.6-1.7,9.6-2.4,14.5-1.8c2.5,0.3,5,0.9,7.3,1.9c2.2,0.9,4.4,1.6,6.2,3.2
			c0.2,0.1,0.3,0.3,0.4,0.5c0.1,0.2,0.1,0.4,0.2,0.6c0.7,5,0.2,10.1,1.3,15.1C805.5,360.8,806,362.6,806,362.6z"/>
		<path class="st12" d="M768.4,374.6c2.3,6.2,4.5,12.4,8.3,17.8c2.1,3,5.1,5.3,6.6,8.6c1.3,3,1.5,6.8,2.3,10
			c1.2,5.2,2.3,12.7,9,13.1c5,0.3,9.3-1.7,12.6-4.8c2.6-2.5,4.7-5.7,6-9c5-12.4,4.2-24.1,2.7-31.9c-0.1-0.7-0.3-1.4-0.4-2
			c-0.1-0.6-0.3-1.1-0.4-1.6c-1.9-6.9-5.3-11.7-9-12.2l0,0c0.4,0.3,5.4,4.4,4.6,6.4c-0.3,0.8-2.5,1.2-5.5,1.2c-0.9,0-2,0-3-0.1
			c-3.2-0.2-6.8-0.8-9.5-1.7c-0.2-0.1-0.4-0.1-0.6-0.2c-0.1,0-0.2-0.1-0.3-0.1c-4.4-1.6-8.9-3.1-13.2-4.8c-3.4-1.3-7.1-2.3-10-4.6
			c-0.5-0.4-0.9-0.8-1.3-1.2c-0.8-0.9-1.4-1.9-1.8-3.1c-0.1-0.4-0.3-1.3-0.3-2c-0.3,0.9-0.6,2-0.6,2.5
			C763.6,361.6,766.1,368.4,768.4,374.6z"/>
		
			<linearGradient id="SVGID_49_" gradientUnits="userSpaceOnUse" x1="403.9227" y1="610.9397" x2="421.7041" y2="565.3465" gradientTransform="matrix(-0.994 0.1094 -0.1094 -0.994 1402.4219 735.3058)">
			<stop  offset="0" style="stop-color:#F2F2F2;stop-opacity:0.8"/>
			<stop  offset="1" style="stop-color:#F2F2F2;stop-opacity:0"/>
		</linearGradient>
		<path class="st73" d="M891.6,173.1c2,4.5,4.5,8,8.3,11.4c1.9,1.7,8.5,7,9.8,10.1c0.1,0,1-2.7,1-2.9v-0.1c0.1-0.2,0.1-0.3,0.2-0.5
			c0.1-0.3,0.2-0.6,0.3-0.9c0.4-1.1,0.8-2.6,1.5-3.6c1.2-1.6,3.6-1.7,5.3-2.1c1.8-0.4,3.7-0.9,5.5-1.2c5.2-1.1,10.5-2.1,15.8-3.1
			c5.7-1,11.5-2,17.2-3.1c4.6-0.8,9.2-1.6,13.8-2.5c1.4-0.3,2.8-0.6,4.2-0.9c0.2-0.1,1.5-0.3,1.6-0.6c0.1-0.5-10.8-0.4-11.5-0.4
			c-19.8,0.3-39.4,1.5-59.2,0.3C904.5,173,894.8,172.3,891.6,173.1z"/>
		
			<linearGradient id="SVGID_50_" gradientUnits="userSpaceOnUse" x1="229.3615" y1="571.046" x2="384.4089" y2="480.5214" gradientTransform="matrix(-0.994 0.1094 -0.1094 -0.994 1402.4219 735.3058)">
			<stop  offset="0" style="stop-color:#F2F2F2;stop-opacity:0.8"/>
			<stop  offset="1" style="stop-color:#F2F2F2;stop-opacity:0"/>
		</linearGradient>
		<path class="st74" d="M983.5,300.4c1.7,7,8.1,12.6,11.6,14.9c0.4,0.2,0.7,0.4,1,0.6c0.9,0.5,2.6,1.3,4.7,2.4
			c19-24.2,42.4-37.9,57.7-47.6c17.4-11.1,23.6-30.2,31.3-39.9c7.7-9.7,28.1-15.5,28.1-15.5c-14.1-11.3-39.1-28.7-51.6-26.7
			c-2.2,0.3-5.1,1.4-8.5,3.1c-5.9,2.9-13.3,7.7-20.9,13.8c-13.7,16.2-28,36.2-40.5,53.6l0,0C987,279.6,982,294.1,983.5,300.4z"/>
		<path class="st75" d="M983.5,300.4c1.7,7,8.1,12.6,11.6,14.9c16.5-19.2,71.1-126.7,71.1-126.7c-2.2,0.3-5.1,1.4-8.5,3.1
			c-16.2,8-43.3,29.7-54.6,53.1C989.4,273,981.7,292.7,983.5,300.4z"/>
		<path class="st75" d="M921.8,369.6c0.7,3,1,5,1.5,6.6c0.6,1.6,1.3,2.9,2.9,4.4c3.5-3,7.8-6.4,13.1-10.7
			c11.5-9.3,39.1-32.9,45.9-38.7c-5.5-2-9.8-2.8-14.6-4.6c-0.9-0.3-1.7-0.6-2.5-0.9c-5-1.6-8.7-1.9-12.2-0.1c-1.3,0.7-2.6,1.7-3.9,3
			c-5.3,5.5-12,17.2-19.4,22C925.1,355.4,919.8,360.9,921.8,369.6z"/>
		
			<linearGradient id="SVGID_51_" gradientUnits="userSpaceOnUse" x1="296.8208" y1="453.4514" x2="406.5056" y2="406.8353" gradientTransform="matrix(-0.994 0.1094 -0.1094 -0.994 1402.4219 735.3058)">
			<stop  offset="0" style="stop-color:#F2F2F2;stop-opacity:0.8"/>
			<stop  offset="1" style="stop-color:#F2F2F2;stop-opacity:0"/>
		</linearGradient>
		<path class="st76" d="M939.3,369.9c-5.3,4.3-9.6,7.7-13.1,10.7c1.3,1.2,3.3,2.7,6.2,4.8c9.7,6.9,13.4,13.4,16.7,17
			c1.3,1.4,3.6,0.5,6.7-1.7c4.9-3.5,11.8-10.3,19.1-16c2.4-1.8,5-3.6,7.8-5.4c8.2-5.1,17.5-10,24.5-14.6c0.9-0.6,1.8-1.2,2.6-1.8
			c2.8-2.1,3.9-5.7,2.8-9c-1.6-4.5-5.1-10.8-13-15.6c-5.8-3.5-10.4-5.6-14.4-7.1C978.4,337,950.8,360.6,939.3,369.9z"/>
		<path class="st66" d="M869.1,178.2c3.3,4.6,9.1,13.9,10.6,24c1.3-0.8,2.2-2.1,2.2-2.1s-2.2-13-9.1-19
			C871.1,179.7,869.9,178.7,869.1,178.2z"/>
		<path class="st75" d="M870.3,419.5c3.7-11,12-18.8,20.4-22.3c1.3-0.6,2.7-1,4-1.4c12.2-3.1,26.9-10.5,26.9-10.5l0,0
			c-1.8-1.3-3.6-2.6-5.2-3.8c-4.2-3-7.8-5.4-10.7-6.1c-4.1-0.9-11,1.2-17.2,5c0,0-0.1,0-0.1,0.1c-3,1.8-5.9,4.1-8.2,6.6
			C873.4,394.3,867.1,404.1,870.3,419.5z"/>
		<path class="st66" d="M862.9,177c1.8,5.5,4.5,15.9,3.4,26.2c0.6,0.3,1.5,0.2,2.8-1.2c0,0-2.9-23.1-6.5-25.7
			C862.7,176.5,862.8,176.7,862.9,177z"/>
		
			<linearGradient id="SVGID_52_" gradientUnits="userSpaceOnUse" x1="390.3941" y1="408.0139" x2="455.4254" y2="377.8394" gradientTransform="matrix(-0.994 0.1094 -0.1094 -0.994 1402.4219 735.3058)">
			<stop  offset="0" style="stop-color:#F2F2F2;stop-opacity:0.8"/>
			<stop  offset="1" style="stop-color:#F2F2F2;stop-opacity:0"/>
		</linearGradient>
		<path class="st77" d="M890.7,397.1c0.7,2.4,3.4,4.9,6.8,6.3c6.6,2.7,9.9,18.3,18.9,19.1c9,0.8,12-4.7,20.9-7.8
			c3.6-1.3,6.7-3.5,9-5.6l0,0c0.1-0.6,0-1.3-0.4-1.9c-2.1-3.8-7-11.6-14.7-15.8c-3.4-1.8-6.6-4-9.6-6.2l0,0c0,0-14.6,7.4-26.9,10.5
			C893.3,396.1,892,396.6,890.7,397.1z"/>
		
			<linearGradient id="SVGID_53_" gradientUnits="userSpaceOnUse" x1="521.4048" y1="358.7453" x2="469.4036" y2="368.975" gradientTransform="matrix(-0.994 0.1094 -0.1094 -0.994 1402.4219 735.3058)">
			<stop  offset="0" style="stop-color:#F2F2F2;stop-opacity:0.8"/>
			<stop  offset="1" style="stop-color:#F2F2F2;stop-opacity:0"/>
		</linearGradient>
		<path class="st78" d="M881.6,435.2c5.6,2.7,24.7,2,25.4-6.3c0.5-5.6-10.8-24.4-17.3-23.7c-12.5,1.4-17.8,16.3-12,26.3
			C878.6,433.3,879.9,434.5,881.6,435.2z"/>
		<path class="st66" d="M765.4,354.5c0.6,1.7,1.6,3.2,3.1,4.3c2.9,2.3,6.6,3.3,10,4.6c4.4,1.7,8.8,3.1,13.2,4.8
			c6.2,2.3,18.2,3,18.9,0.9c0.7-2-4.3-6.1-4.6-6.4c0.2,0.3,2,2.3,2.3,4.2c0.3,2,0.9,2.8-4.9,2.8c-5.9,0-27.1-7.5-30.3-9.1
			c-1.7-0.9-3.4-1.8-4.8-3c-0.8-0.7-1.4-1.6-1.8-2.6c-0.3-0.6-1.2-2.3-0.3-2.7c1-0.4,0.1-1.2-0.2-1.1c-0.4,0-0.7,0.6-0.9,1.3l0,0
			C765.1,353.2,765.3,354.1,765.4,354.5z"/>
		<path class="st66" d="M858.8,330.6c0.2,0.7,1,1.7,2.6,2.8c2.9,1.9,16.2,0.3,21.4-0.1c5.2-0.3,13.9-3.7,13.8-5.4
			c-0.1-1.7-5.4-3.1-5.4-3.1s-0.8,0.7,0.7,1.1c1.5,0.5,3.6,0.9,3,1.9s-2,2-4.2,2.7s-5.3,1.6-11.2,2.1c-5.9,0.4-12.5,1.3-15.9,0.6
			c-3.4-0.7-4.1-2.4-4.1-3c0.1-0.8-0.5-0.9-0.5-0.9C858.8,329.6,858.8,330.1,858.8,330.6z"/>
		<path class="st79" d="M807.2,419.4c2.6-2.5,4.7-5.7,6-9c5-12.4,4.2-24.1,2.7-31.9c-3.3-0.7-7.7,1.5-7.3,5.2
			c-0.6,2.1-0.6,4.4-0.5,6.6c0.1,3.8,0.2,7.7,0.7,11.5c0.5,4.6,1.5,9.2,0.3,13.7C808.5,416.7,807.9,418,807.2,419.4z"/>
		<path class="st71" d="M847.1,416.2c0.1,0.1,0.2,0.1,0.3,0.2c5.4-2.6,8.7-8.4,9.9-14.3c2.6-12.7-0.6-23.7-3.5-30.5
			c-0.1,0-0.2,0.1-0.3,0.1c-1.1,0.3-2.2,0.6-3,1.3c-0.5,0.4-1,0.9-1.4,1.5c-0.1,0.1-0.1,0.2-0.2,0.3c-0.9,1.6,0.4,4.4,0.7,6.1
			c0.5,2.5,1,5.1,1.5,7.6c1,4.8,2,9.7,1.7,14.6C852.4,407.9,850.7,412.9,847.1,416.2z"/>
		<path class="st80" d="M899.6,341.4c0.7,1.1,1.7,1.9,2.5,3c0.9,1.2,1.6,2.6,2.3,3.9c3.1,5.9,5.4,12.5,4.5,19.2
			c2-3.1,2.9-7,2.7-10.8c-0.4-10.5-4.7-18.6-8.4-23.7c-1.1-0.1-2.3,0.4-3.4,1.7C898.3,336.5,898.3,339.3,899.6,341.4z"/>
		
			<linearGradient id="SVGID_54_" gradientUnits="userSpaceOnUse" x1="571.7459" y1="469.9291" x2="563.8618" y2="406.6641" gradientTransform="matrix(-0.994 0.1094 -0.1094 -0.994 1402.4219 735.3058)">
			<stop  offset="0" style="stop-color:#F2F2F2;stop-opacity:0.8"/>
			<stop  offset="1" style="stop-color:#F2F2F2;stop-opacity:0"/>
		</linearGradient>
		<path class="st81" d="M767.2,357.5c0,0.1,0.1,0.3,0.1,0.4c0.4,1.1,1.3,1.9,2.2,2.6c5.2,3.9,11.7,5.5,17.6,8.1
			c6.5,2.8,16.2,7.1,15.9,15.4c0,0.5,0,1,0.1,1.4c0.2,0.4,0.7,0.8,1.2,0.6c0.9-0.4,1.6-3.5,2.1-4.3c1-1.8,2.3-3.5,3.9-5
			c1-1,2.2-1.8,3.6-2c0.4,0,0.7-0.1,1.1-0.1c-1.9-6.9-5.3-11.7-9-12.2l0,0c0.4,0.3,5.4,4.4,4.6,6.4c-0.3,0.8-2.5,1.2-5.5,1.2
			c-0.9,0-2,0-3-0.1c-2.6,0.4-7.3-1-9.5-1.7c-0.2-0.1-0.4-0.1-0.6-0.2c-0.1,0-0.2-0.1-0.3-0.1c-4.4-1.6-8.9-3.1-13.2-4.8
			c-3.4-1.3-7.1-2.3-10-4.6C768,358.4,767.6,358,767.2,357.5z"/>
		
			<linearGradient id="SVGID_55_" gradientUnits="userSpaceOnUse" x1="525.683" y1="439.1544" x2="526.0095" y2="419.6729" gradientTransform="matrix(-0.994 0.1094 -0.1094 -0.994 1402.4219 735.3058)">
			<stop  offset="0" style="stop-color:#F2F2F2;stop-opacity:0.8"/>
			<stop  offset="1" style="stop-color:#F2F2F2;stop-opacity:0"/>
		</linearGradient>
		<path class="st82" d="M813.4,364.5c0,0.1,0.1,0.1,0.1,0.1c0.3,0.2,0.6,0.4,0.9,0.6c6.3,3.3,13,3.2,19.9,4.6
			c4,0.8,8.1,2.5,10.4,5.9c0.5,0.7,0.9,1.5,1.7,1.9c0.2-2.4-1.7-5-0.4-7c0.8-1.3,2.5-1.6,4-1.8c0.7-0.1,1.5-0.2,2.2-0.3
			c-2.8-5.3-6.4-8.6-9.7-8.4c0,0,5.7,3,5.3,5c-0.3,2-11.3,3.4-17.3,2.4C826.8,366.8,819.3,365.9,813.4,364.5z"/>
		
			<linearGradient id="SVGID_56_" gradientUnits="userSpaceOnUse" x1="377.0322" y1="504.7415" x2="476.0262" y2="490.9575" gradientTransform="matrix(-0.994 0.1094 -0.1094 -0.994 1402.4219 735.3058)">
			<stop  offset="0" style="stop-color:#F2F2F2;stop-opacity:0.8"/>
			<stop  offset="1" style="stop-color:#F2F2F2;stop-opacity:0"/>
		</linearGradient>
		<path class="st83" d="M880.2,287.6c0.4,1.9,3,16.7,3.7,24.8c4.3-2.5,6.9-3.9,7.7-6.2c1.3-3.6-1.7-19.6-1.7-19.6s-3.3,2.6-7.5-1
			c-0.2-0.2-0.4-0.3-0.6-0.5l0,0c-0.7-0.5-1.6-1.1-2.6-1.8C879.4,284.9,879.9,286.5,880.2,287.6z"/>
		
			<linearGradient id="SVGID_57_" gradientUnits="userSpaceOnUse" x1="476.0799" y1="478.4738" x2="474.2335" y2="442.3655" gradientTransform="matrix(-0.994 0.1094 -0.1094 -0.994 1402.4219 735.3058)">
			<stop  offset="0" style="stop-color:#F2F2F2;stop-opacity:0.8"/>
			<stop  offset="1" style="stop-color:#F2F2F2;stop-opacity:0"/>
		</linearGradient>
		<path class="st84" d="M858.6,332.3c0.1,0.5,0.4,1,0.8,1.3c0.8,0.6,1.9,0.9,3,1.1c5.7,1,11.4,1.5,17.2,1.7c3.9,0.1,7.8,0,11.6,1.1
			c1.7,0.5,3.4,1.3,5.2,1.3c-1.1-1.9-1-4.4,0.3-6.1c1.1-1.4,3-2.2,4.8-2c-3.6-4.3-7.5-6.7-10.4-5.8c0,0,5.3,1.4,5.4,3.1
			c0.1,1.7-8.6,5.1-13.8,5.4c-5.1,0.3-18.5,1.9-21.4,0.1c-1.5-1-2.2-1.9-2.5-2.6c0,0,0,0,0,0.1C858.6,331.3,858.5,331.8,858.6,332.3
			z"/>
		
			<linearGradient id="SVGID_58_" gradientUnits="userSpaceOnUse" x1="467.4342" y1="527.3123" x2="526.3298" y2="459.2381" gradientTransform="matrix(-0.994 0.1094 -0.1094 -0.994 1402.4219 735.3058)">
			<stop  offset="0" style="stop-color:#F2F2F2;stop-opacity:0.8"/>
			<stop  offset="1" style="stop-color:#F2F2F2;stop-opacity:0"/>
		</linearGradient>
		<path class="st85" d="M830.7,348.4c10.3-2.7,15.6-8.7,17.7-11.9c2.5-3.8,3.4-22.9,3.4-22.9s-4.4,2-8.3-3.2
			c-0.2-0.2-0.4-0.5-0.6-0.7l0,0c-1.8-2.2-5-5.6-8.6-9.2c0.8,5.4,3,11,3.5,16.4c0.6,6.7,0.2,13.5-1.9,19.9
			C834.5,340.8,832.5,344.6,830.7,348.4z"/>
		<path class="st65" d="M777,265.6c-1.9,3.7-0.9,8.2,0.2,12.1c1.5,5,4.1,9.5,6.7,13.9c3.3,5.7,6.8,11.7,12.2,15.6
			c3,2.2,6.5,3.8,10,5.2c2.8,1.1,6.1,2.2,8.6,0.5c1.9-1.3,2.6-3.8,2.4-6s-1.2-4.4-2-6.5c-2.1-4.9-1.7-10.2-1.5-15.4
			c0.2-5.3,0.7-10.6,1.8-15.8c1.4-6.3,2.4-13.5-2.5-18.6c-4.4-4.6-11-5.4-16.5-2.4c-1.7,0.9-3.2,2.1-4.6,3.3c-2,1.6-4,3.2-6,4.7
			c-2.6,2-4.8,4.5-7,7c-0.4,0.5-0.8,0.9-1.1,1.4C777.4,265,777.2,265.3,777,265.6z"/>
		<path class="st12" d="M768.9,349.8c3.5,4.6,5.3,3.4,20.9,0.7c3.1-0.5,5.9-1.3,8.4-2.3c9.8-3.7,14.6-10,16.6-13.3
			c2.5-4.2,2.2-25,2.2-25s-4.7,2.5-9.2-2.9c-0.2-0.2-0.4-0.5-0.7-0.8c-1.7-1.9-4.5-4.5-7.8-7.5c-7.4-6.7-17.3-15-22.3-19.1
			c-7.6-6.1-4.7-15.3-4.7-15.3s-3.4,5.3-2.2,25s-2.5,39.9-2.8,46.9C767.2,343,765.4,345.2,768.9,349.8z"/>
		<path class="st66" d="M777,279.5c7.3,5.8,24.6,20.5,30.1,26.6c0,0-7.6-11.2-15.2-17.3s-7.7-7.1-11.2-11.7c-1.8-2.4-3.8-5.6-4-8.7
			c-0.1-0.8,0.2-1.4,0.6-2.1c0.6-1.2-0.1-2.1-1.3-2.4c-1.2-0.4-2.6-0.2-3.7,0.3C772.4,264.2,769.4,273.4,777,279.5z"/>
		
			<linearGradient id="SVGID_59_" gradientUnits="userSpaceOnUse" x1="504.1814" y1="513.5909" x2="556.4106" y2="472.3574" gradientTransform="matrix(-0.994 0.1094 -0.1094 -0.994 1402.4219 735.3058)">
			<stop  offset="0" style="stop-color:#F2F2F2;stop-opacity:0.8"/>
			<stop  offset="1" style="stop-color:#F2F2F2;stop-opacity:0"/>
		</linearGradient>
		<path class="st86" d="M798.2,348.2c9.8-3.7,14.6-10,16.6-13.3c2.5-4.2,2.2-25,2.2-25s-4.7,2.5-9.2-2.9c-0.2-0.2-0.4-0.5-0.7-0.8
			c-1.7-1.9-4.5-4.5-7.8-7.5c0.4,6.8,0.8,13.5,1.3,20.3C801.2,328.7,801.7,339.1,798.2,348.2z"/>
		<path class="st12" d="M785.4,256.8c1.2,1.9,31,20.4,52.5,9.1c21.6-11.3,23.2-41.2,27.4-57.5c0.4-1.7,0.7-3.4,0.9-5.1
			c1.1-10.3-1.6-20.7-3.4-26.2c-0.1-0.3-0.2-0.6-0.4-0.8l0,0c-0.9-1.2-2.7-1.4-3.9-0.2C844.2,191.2,784.3,255.1,785.4,256.8z"/>
		<path class="st65" d="M791.6,204.9c-4.3,3.6-8.6,7.4-11.5,12.2c-1.4,2.3-2.4,4.7-3.4,7.1c-1.8,4.1-3.8,8.1-4.4,12.5
			c-0.6,4.4,0.7,9.3,4.3,11.9c4.2,3,9.9,3.4,14.9,2.3c5-1.1,9.5-3.6,14-6.1c11.5-6.4,23-12.7,34.5-19.1c0.4-5.4-1.6-10.7-4.9-15
			c-3.3-4.3-7.7-7.5-12.3-10.2c-1.8-1.1-3.7-2-5.8-2.4c-2.3-0.4-4.7-0.1-7,0.3C803.7,199.6,796.4,200.8,791.6,204.9z"/>
		<g>
			<path class="st66" d="M868.3,245.8c0.6-0.4,1.2-0.9,1.7-1.3c0.6-0.5,1.2-1,1.9-1.5c0.7-0.6,1.3-1.2,2-1.7
				c0.7-0.6,1.4-1.3,2.1-1.9c0.7-0.7,1.4-1.4,2.1-2.1c0.7-0.7,1.5-1.5,2.2-2.2c0.7-0.8,1.5-1.5,2.2-2.3c0.8-0.8,1.5-1.6,2.2-2.4
				c0.7-0.8,1.5-1.6,2.2-2.4c0.7-0.8,1.5-1.6,2.2-2.4c0.7-0.8,1.4-1.6,2.2-2.4c0.7-0.8,1.4-1.6,2.1-2.4c0.7-0.8,1.3-1.5,2-2.3
				c0.6-0.7,1.3-1.5,1.9-2.2c0.6-0.7,1.2-1.4,1.8-2.1c0.5-0.6,1.1-1.3,1.6-1.9c0.5-0.6,1-1.2,1.4-1.8c0.4-0.5,0.8-1,1.2-1.6
				c0.3-0.4,0.7-0.9,1-1.3c0.3-0.4,0.5-0.7,0.8-1.1c0.2-0.2,0.3-0.5,0.5-0.7c2.5-3.9,2-12.2,1.8-16.5c-0.1-1.3-1-1.9-2.3-2
				c-0.4,0-1.6,0.1-2,0.2c0.8,0.2,2.5,1,2.6,1.9c0.3,4.2,0.4,12.6-2.1,16.5c-3.4,5.3-31.4,39.1-41,42.2
				C863.2,248,867,246.8,868.3,245.8z"/>
			<path class="st67" d="M800.6,208.8c0.1,0.8,0.3,1.6,0.5,2.4c0.2,0.7,0.5,1.6,1,2.7c1.2,2.6,3.3,6.1,5.8,9.8
				c7.3,10.9,18,24.4,20.2,26.1c2,1.6,11,1.7,19.9,0.8h0.3c0.6-0.1,1.1-0.1,1.7-0.2h0.3c4.7-0.5,9.2-1.4,12.4-2.4
				c5.5-1.7,17-13.6,26.5-24.4c7.1-8,13-15.5,14.5-17.8c0.2-0.3,0.4-0.7,0.6-1.1c0.8-1.9,1.3-4.5,1.5-7.1c0.2-3.1,0.1-6.3,0-8.4
				c-0.1-0.9-0.7-1.7-1.5-1.9l0,0c-0.3-0.1-0.7-0.1-1,0s-0.6,0.1-0.9,0.2c-6.1,1.5-19.5,4.5-32.3,6c-0.1,0-0.3,0-0.4,0
				c-0.3,0-0.6,0.1-0.8,0.1c-0.4,0-0.7,0.1-1.1,0.1c-16.4,1.7-56.5,3.9-65.8,4.4c-1.3,0.1-2,0.1-2,0.1s0,0,0,0.1
				C799.7,199.3,799.5,203.1,800.6,208.8z"/>
			<path class="st75" d="M800.6,208.8c0.1,0.4,0.1,0.8,0.2,1.2c0.1,0.4,0.2,0.8,0.3,1.2c0.2,0.7,0.5,1.6,1,2.7
				c9,1.6,23.4,2.1,56.6-1.2c24.3-2.4,38.3-5.7,45.4-7.9c0.1-0.3,0.2-0.5,0.3-0.8c0.1-0.2,0.2-0.5,0.2-0.8c0.1-0.3,0.1-0.5,0.2-0.8
				c0.1-0.2,0.1-0.4,0.2-0.7c0.1-0.4,0.1-0.7,0.2-1.1c0.1-0.3,0.1-0.6,0.1-0.9c0-0.3,0.1-0.6,0.1-0.9c0-0.1,0-0.1,0-0.2
				c0-0.3,0.1-0.6,0.1-0.9c0.2-3.1,0.1-6.3,0-8.4c-0.1-0.9-0.7-1.7-1.5-1.9l0,0c-0.3-0.1-0.7-0.1-1,0s-0.6,0.1-0.9,0.2
				c-6.1,1.5-19.5,4.5-32.3,6c-0.1,0-0.3,0-0.4,0c-0.3,0-0.6,0.1-0.8,0.1c-0.4,0-0.7,0.1-1.1,0.1c-16.4,1.7-56.5,3.9-65.8,4.4
				c-1.3,0.1-2,0.1-2,0.1s0,0,0,0.1C799.7,199.3,799.5,203.1,800.6,208.8z"/>
			
				<linearGradient id="SVGID_60_" gradientUnits="userSpaceOnUse" x1="437.1934" y1="574.3206" x2="539.6758" y2="574.3206" gradientTransform="matrix(-0.994 0.1094 -0.1094 -0.994 1402.4219 735.3058)">
				<stop  offset="0" style="stop-color:#F2F2F2;stop-opacity:0.8"/>
				<stop  offset="1" style="stop-color:#F2F2F2;stop-opacity:0"/>
			</linearGradient>
			<path class="st87" d="M802.1,213.9c1.2,2.6,3.3,6.1,5.8,9.8c1.8-0.2,3.7-0.5,5.5-0.8c21.5-3.3,43,2.1,64.5,1.5
				c2.4-0.1,6.5-0.2,11.2-0.7c7.1-8,13-15.5,14.5-17.8c0.2-0.3,0.4-0.7,0.6-1.1c-7.1,2.2-21.1,5.5-45.4,7.9
				C825.5,216,811.1,215.5,802.1,213.9z"/>
		</g>
		<path class="st65" d="M730.9,289.8c-1.7,1.3-3.7,2.8-5.8,2.3c-1.9-0.4-3.1-2.1-4.1-3.7c-4.4-6.7-9-14.3-7.7-22.2
			c1.3-8,8.1-13.8,14.5-18.9c6.1-4.8,13.5-9.9,20.9-7.6c2.6,0.8,4.9,2.5,6.9,4.3c3.8,3.3,7.2,7.4,9.1,12.1c2.3,5.8,2.3,7.9-2.5,11.2
			C751.4,274.6,740.9,281.8,730.9,289.8z"/>
		<g>
			<path class="st66" d="M792.9,201.9c0.9-0.4,2-0.1,2.6,0.8c1.6,2.6,4.6,8.2,3.9,12.8c-0.9,5.9-2,37.7-9.3,47
				c0.1-0.1,0.2-0.2,0.3-0.2c8.4-7.2,9.9-42.1,10.5-48.4c0.3-3.2-3.2-11.1-4.6-12.3C795.2,200.5,792.8,201.8,792.9,201.9z"/>
			<path class="st67" d="M730.8,253.4c0.8,0.9,1.6,1.9,2.6,3.1c1,1.1,2.1,2.4,3.4,3.7c0.8,0.9,1.7,1.9,2.6,2.9
				c5.8,6.3,13.2,11.3,21.5,13.7c2.2,0.6,3.7,1.2,5.8,0.2c1.4-0.7,2.9-1.4,4.3-2.1c4.2-2.1,8.3-4.4,12.2-7c2-1.3,3.8-2.6,5.6-4.2
				c0.4-0.4,0.9-0.8,1.2-1.3c4-5.2,6.1-17.1,7.4-27.7c1-8.7,1.5-16.7,1.9-19.3c0.3-1.7,0-3.6-0.5-5.4c-0.9-3-2.4-5.7-3.4-7.4
				c-0.5-0.9-1.6-1.2-2.6-0.8c-13.1,6.1-34.2,24.8-42.3,29.6c-7.5,4.4-19.1,11.2-22.8,13.3c-0.5,0.3-0.8,0.5-1,0.6
				C725.6,246.1,726.2,247.9,730.8,253.4z"/>
			<path class="st75" d="M730.8,253.4c0.4,0.5,0.8,0.9,1.2,1.4s0.9,1,1.4,1.6c8.8-3.5,24.8-12.8,32.4-18.8
				c8.8-6.9,33.5-22.3,33.5-22.3c0.1-0.3,0.1-0.7,0.1-1c0-0.2,0-0.3,0-0.5c0-0.1,0-0.2,0-0.3s0-0.2,0-0.4s0-0.3,0-0.5l0,0
				c0-0.2-0.1-0.5-0.1-0.7c-0.1-0.7-0.3-1.4-0.5-2c-0.9-3-2.4-5.7-3.4-7.4c-0.5-0.9-1.6-1.2-2.6-0.8c-13.1,6.1-34.2,24.8-42.3,29.6
				c-7.5,4.4-19.1,11.2-22.8,13.3c-0.5,0.3-0.8,0.5-1,0.6C725.6,246.1,726.2,247.9,730.8,253.4z"/>
			
				<linearGradient id="SVGID_61_" gradientUnits="userSpaceOnUse" x1="522.9398" y1="590.1935" x2="588.2913" y2="564.4578" gradientTransform="matrix(-0.9438 0.3305 -0.3305 -0.9438 1499.7682 590.3398)">
				<stop  offset="0" style="stop-color:#F2F2F2;stop-opacity:0.8"/>
				<stop  offset="1" style="stop-color:#F2F2F2;stop-opacity:0"/>
			</linearGradient>
			<path class="st88" d="M733.4,256.5c1,1.1,2.1,2.4,3.4,3.7c0.5-0.3,1-0.6,1.5-0.9c17.8-11.1,40.6-12.1,58.1-23.8
				c0.4-0.3,0.8-0.6,1.2-0.9c1-8.7,1.5-16.7,1.9-19.3c0,0-24.8,15.4-33.5,22.3C758.2,243.7,742.2,252.9,733.4,256.5z"/>
		</g>
		
			<linearGradient id="SVGID_62_" gradientUnits="userSpaceOnUse" x1="1252.8054" y1="668.6226" x2="1262.3995" y2="531.1082" gradientTransform="matrix(1 0 0 -1 0 768)">
			<stop  offset="0" style="stop-color:#F2F2F2;stop-opacity:0.8"/>
			<stop  offset="1" style="stop-color:#F2F2F2;stop-opacity:0"/>
		</linearGradient>
		<path class="st89" d="M1366,119.6V197c-22.4,0.4-185.2,3.4-193.1,3.3c-1.9,0-3.8-0.1-5.8-0.4c-1.7-0.2-3.4-0.6-5-1.1l0,0
			c-2.4-0.8-4.7-1.9-6.7-3.4c-6.1-5-5.2-12.2-6.6-19.3c-1.1-5.8-2.1-12.9-3.8-19.7c1-0.1,2.1-0.2,3.1-0.3l0,0
			c49.6-5.3,170.7-24.5,184.1-27.2C1339.9,127.3,1353.8,123,1366,119.6z"/>
		
			<linearGradient id="SVGID_63_" gradientUnits="userSpaceOnUse" x1="328.1606" y1="588.6744" x2="353.8437" y2="508.6288" gradientTransform="matrix(-0.994 0.1094 -0.1094 -0.994 1402.4219 735.3058)">
			<stop  offset="0" style="stop-color:#F2F2F2;stop-opacity:0.8"/>
			<stop  offset="1" style="stop-color:#F2F2F2;stop-opacity:0"/>
		</linearGradient>
		<path class="st90" d="M883.8,267.8c5.4,4.3,12.9,6.6,19.3,8.9c8,2.9,16,6,24.5,7c6.5,0.8,13.1,0,19.5-1.1
			c9.5-1.6,19.4-3.7,28.4-7.1c0.1,0,0.1,0,0.2-0.1c0.1,0,0.1,0,0.1,0L975,273c-11.7,3.3-24.3,1.2-20.3-13.6v-0.1c0-0.1,0-0.1,0-0.1
			c0.3-0.9,0.6-1.9,1-3c0,0,0,0,0-0.1c2-5.5,6-12.6,13.4-21.7c3.1-3.8,6.8-8,11.2-12.6c7.8-8.1,18.7-14.4,30.8-19.2
			c37.4-15,87.3-17,102.3-23.2c4.9-2,10-6.9,13.8-12.9c-6.4,3.4-12.9,7.8-17.7,9.3c-2.1,0.7-4.2,1.2-6.4,1.8
			c-10.6,2.5-22.1,3.5-32.6,5.4c-42.1,7.4-84,15-126.4,19.9c-7.5,0.9-15,1.5-22.5,2.3c1.7,2.1,3.3,4.3,4.9,6.5
			c2.6,3.6,4.9,7.4,6.9,11.4c0.4,0.7,0.7,1.5,1.1,2.3c0.6,1.4,1.1,2.8,1.5,4.2l0,0c4.4,16.8-7.3,34.5-20.3,41.4
			C902.2,278.5,884.7,268.3,883.8,267.8z"/>
		<g>
			<g>
				<path class="st66" d="M722.6,249.3c0.8-0.6,8.8,9.4,11.9,22.7c3.1,13.3,3,17.5,3,17.5c0.2-0.3,0.3-0.8,0.3-1.2
					c0.1-0.4,0.2-0.9,0.3-1.3c0.2-0.9,0.3-1.8,0.3-2.7c0-1-0.1-1.9-0.3-2.9c-0.2-1.5-0.5-3-0.8-4.4c-0.5-2.3-1-4.5-1.5-6.7
					c-1.3-5.5-3.5-10.8-6.3-15.7c-0.8-1.3-1.6-2.6-2.5-3.8c-0.7-0.9-1.4-2.1-2.4-2.5C723.9,248,723.1,248.7,722.6,249.3z"/>
				<path class="st67" d="M677.3,313.2c2,2.1,5,3.9,7.7,5.4c11.7,6.6,30.7-0.5,40.7-8.6c2.1-1.7,3.9-3.6,5.3-5.6
					c5.4-7.2,6.4-15,6.4-15s0.1-3.8-2.6-15.9c-0.1-0.5-0.2-1-0.4-1.6c-1.1-4.6-2.8-8.9-4.5-12.4c-0.3-0.5-0.5-1-0.8-1.5
					c-3.1-5.7-6.2-9.1-6.6-8.7c-5.1,4.8-10.5,9.3-15.3,14.3c-0.7,0.7-1.4,1.5-2,2.3c-5.1,6.1-8.5,13.6-13,20.2
					c-0.4,0.6-0.8,1.1-1.2,1.7l0,0c-4,5.4-8.9,9.2-13.3,14.1c-0.1,0.1-0.2,0.2-0.3,0.4C673.5,306.7,674.5,310.3,677.3,313.2z"/>
				<path class="st75" d="M677.3,313.2c1.9-0.4,3.8-1.2,5.5-2.2c4.3-2.4,8.4-5.1,11.8-8.7c1.2-1.3,2.4-2.8,3.4-4.3
					c4.5-6.5,7.4-14.2,12.7-20.1c4.8-5.3,16.3-11,19.3-18.5c-0.3-0.5-0.5-1-0.8-1.5c-3.1-5.7-6.2-9.1-6.6-8.7
					c-5.1,4.8-10.5,9.3-15.3,14.3c-0.7,0.7-1.4,1.5-2,2.3c-5.1,6.1-8.5,13.6-13,20.2c-0.4,0.6-0.8,1.1-1.2,1.7l0,0
					c-4,5.4-8.9,9.2-13.3,14.1c-0.1,0.1-0.2,0.2-0.3,0.4C673.5,306.7,674.5,310.3,677.3,313.2z"/>
			</g>
			
				<linearGradient id="SVGID_64_" gradientUnits="userSpaceOnUse" x1="610.9496" y1="541.5721" x2="656.3253" y2="541.5721" gradientTransform="matrix(-0.9063 0.4226 -0.4226 -0.9063 1517.2092 502.1074)">
				<stop  offset="0" style="stop-color:#F2F2F2;stop-opacity:0.8"/>
				<stop  offset="1" style="stop-color:#F2F2F2;stop-opacity:0"/>
			</linearGradient>
			<path class="st91" d="M697.9,298.1c0.1,0.1,0.2,0.1,0.2,0.1c0.1,0,0.2,0.1,0.3,0.1c1.7,0.2,4.5-2.3,5.7-3.1
				c4-2.7,7.8-5.8,11.1-9.3c2.8-2.9,5.5-5.3,9.1-7.2c3.4-1.7,7.4-2.8,10.4-5.3c-0.1-0.5-0.2-1-0.4-1.6c-1.1-4.6-2.8-8.9-4.5-12.4
				c-3,7.5-14.6,13.2-19.3,18.5C705.3,283.9,702.4,291.6,697.9,298.1z"/>
		</g>
	</g>
</g>
<g id="sun">
	
		<radialGradient id="SVGID_65_" cx="654.7" cy="420.7" r="63.8" gradientTransform="matrix(1 0 0 -1 0 768)" gradientUnits="userSpaceOnUse">
		<stop  offset="0" style="stop-color:#FFFFFF;stop-opacity:0.1"/>
		<stop  offset="0.386" style="stop-color:#FDFDFE;stop-opacity:6.140053e-02"/>
		<stop  offset="0.525" style="stop-color:#F6F6F9;stop-opacity:4.749572e-02"/>
		<stop  offset="0.6242" style="stop-color:#EBEBF0;stop-opacity:3.757953e-02"/>
		<stop  offset="0.7043" style="stop-color:#DADAE4;stop-opacity:2.956556e-02"/>
		<stop  offset="0.773" style="stop-color:#C5C4D3;stop-opacity:2.270029e-02"/>
		<stop  offset="0.8338" style="stop-color:#AAA8BF;stop-opacity:1.662342e-02"/>
		<stop  offset="0.8888" style="stop-color:#8A88A8;stop-opacity:1.112216e-02"/>
		<stop  offset="0.9393" style="stop-color:#65628C;stop-opacity:6.066754e-03"/>
		<stop  offset="0.9843" style="stop-color:#3D396E;stop-opacity:1.567662e-03"/>
		<stop  offset="1" style="stop-color:#2D2962;stop-opacity:0"/>
	</radialGradient>
	<circle class="st92" cx="654.7" cy="347.3" r="63.8"/>
	
		<linearGradient id="SVGID_66_" gradientUnits="userSpaceOnUse" x1="639.6331" y1="447.3163" x2="670.4005" y2="394.0256" gradientTransform="matrix(1 0 0 -1 0 768)">
		<stop  offset="0" style="stop-color:#F16496"/>
		<stop  offset="1" style="stop-color:#FF9E86"/>
	</linearGradient>
	<circle class="st93" cx="655" cy="347.3" r="30.8"/>
</g>
<g id="text">
	<g>
		<path class="st31" d="M212,193.9h29.8c10.9,0,19.8,3.2,26.6,9.6c6.8,6.4,10.2,14.8,10.2,25s-3.5,18.6-10.4,25s-16,9.7-27.1,9.7
			H212V193.9z M229.6,208v41.2h12.6c5.4,0,9.9-1.9,13.3-5.7c3.5-3.8,5.2-8.7,5.2-14.8s-1.8-11-5.4-14.9s-8.3-5.8-13.9-5.8H229.6z"/>
		<path class="st31" d="M305.6,263.2H288v-69.3h17.6V263.2z"/>
		<path class="st31" d="M365.5,228h15.2v27c-3.8,2.6-8.3,4.8-13.6,6.5c-5.3,1.7-10.4,2.5-15.2,2.5c-10.6,0-19.4-3.4-26.4-10.1
			c-7.1-6.8-10.6-15.2-10.6-25.3c0-10,3.6-18.4,10.9-25.1c7.3-6.7,16.4-10.1,27.3-10.1c5.1,0,10.3,0.9,15.3,2.8
			c5.1,1.8,9.4,4.4,13,7.5l-9.9,12c-2.5-2.3-5.4-4.1-8.7-5.5c-3.3-1.4-6.6-2-9.8-2c-5.7,0-10.4,2-14.3,5.9s-5.8,8.8-5.8,14.6
			c0,5.9,1.9,10.8,5.8,14.8s8.7,5.9,14.5,5.9c3.7,0,7.8-1.1,12.3-3.4L365.5,228L365.5,228z"/>
		<path class="st31" d="M410.6,263.2H393v-69.3h17.6V263.2z"/>
		<path class="st31" d="M477.4,208.1h-20.9v55.1h-17.6v-55.1h-20.7v-14.3h59.2V208.1z"/>
		<path class="st31" d="M523.6,250.4h-30.3l-5,12.8h-18.1l29.9-69.3h18.1l29.2,69.3h-18.8L523.6,250.4z M518.4,237.1l-9.9-25.6
			l-10.1,25.6H518.4z"/>
		<path class="st31" d="M571.4,248.5h29.4v14.8h-47V194h17.6V248.5z"/>
		<path class="st31" d="M265,326.9h-20.9V382h-17.6v-55.1h-20.7v-14.3H265V326.9z"/>
		<path class="st31" d="M314.3,382L304,362.5h-0.5h-13.4V382h-17.6v-69.3h31c9.2,0,16.3,2.1,21.3,6.3c5,4.2,7.5,10.1,7.5,17.9
			c0,10.7-4.2,18.1-12.6,22.3l14.6,22.9L314.3,382L314.3,382z M290.1,348.6h13.4c3.8,0,6.8-1,8.9-2.9s3.2-4.7,3.2-8.3
			c0-3.6-1.1-6.3-3.2-8.1c-2.1-1.8-5.1-2.8-8.9-2.8h-13.4V348.6z"/>
		<path class="st31" d="M390.2,369.2h-30.3l-5,12.8h-18.1l29.9-69.3h18.1L414,382h-18.8L390.2,369.2z M385.1,355.9l-9.9-25.6
			l-10.1,25.6H385.1z"/>
		<path class="st31" d="M484.4,382h-15.5L437,339.3V382h-16.5v-69.3H436l32,42.8v-42.8h16.4V382z"/>
		<path class="st31" d="M524.8,311.9c10.4,0,19.5,2.6,27.3,7.7l-6.6,13.8c-3.6-2.1-7.5-3.8-11.7-5.2c-4.2-1.4-7.7-2-10.5-2
			c-5.1,0-7.6,1.7-7.6,5c0,2.2,1.3,3.9,3.8,5.2c2.5,1.3,5.6,2.5,9.2,3.4c3.6,1,7.2,2.1,10.8,3.5s6.6,3.5,9.2,6.6
			c2.5,3,3.8,6.9,3.8,11.5c0,6.7-2.6,11.9-7.8,15.6s-11.8,5.6-19.9,5.6c-5.7,0-11.4-1-17-3c-5.6-2-10.5-4.7-14.7-8.1l6.8-13.6
			c3.5,3,7.6,5.5,12.4,7.5c4.8,1.9,9,2.9,12.7,2.9c2.8,0,5-0.5,6.6-1.5s2.4-2.5,2.4-4.5c0-1.9-0.9-3.5-2.7-4.8s-4.1-2.2-6.8-2.9
			c-2.7-0.6-5.6-1.5-8.8-2.5c-3.2-1.1-6.1-2.2-8.8-3.5c-2.7-1.3-5-3.2-6.8-6c-1.8-2.7-2.7-6-2.7-9.9c0-6.3,2.5-11.4,7.6-15.2
			C509.8,313.8,516.5,311.9,524.8,311.9z"/>
		<path class="st31" d="M613.4,326.6h-33.8v16h31.1v13.9h-31.1V382H562v-69.3h51.4V326.6z"/>
		<path class="st31" d="M654.6,312.1c10.8,0,19.7,3.3,26.8,10s10.7,15.1,10.7,25.1c0,10.1-3.6,18.5-10.7,25.3
			c-7.2,6.8-16.1,10.2-26.8,10.2s-19.6-3.4-26.7-10.1c-7.1-6.8-10.7-15.2-10.7-25.4c0-10.1,3.6-18.5,10.7-25.1
			C635,315.4,643.9,312.1,654.6,312.1z M654.8,326.9c-5.4,0-10,2-13.9,5.9c-3.8,3.9-5.7,8.8-5.7,14.6c0,5.8,1.9,10.7,5.8,14.7
			c3.9,4,8.5,6,13.8,6s9.9-2,13.6-6c3.7-4,5.6-8.9,5.6-14.7c0-5.8-1.9-10.7-5.6-14.6C664.7,328.8,660.2,326.9,654.8,326.9z"/>
		<path class="st31" d="M743.2,382l-10.3-19.5h-0.5H719V382h-17.6v-69.3h31c9.2,0,16.3,2.1,21.3,6.3c5,4.2,7.5,10.1,7.5,17.9
			c0,10.7-4.2,18.1-12.6,22.3l14.6,22.9L743.2,382L743.2,382z M719.1,348.6h13.4c3.8,0,6.8-1,8.9-2.9c2.1-1.9,3.2-4.7,3.2-8.3
			c0-3.6-1.1-6.3-3.2-8.1c-2.1-1.8-5.1-2.8-8.9-2.8h-13.4V348.6z"/>
		<path class="st31" d="M849.3,382h-15.5l-0.1-45L817,375.1h-11.5L788.9,337v45h-15.7v-69.4h19.3l18.8,41.3l18.8-41.3h19.2V382z"/>
		<path class="st31" d="M909.3,369.2H879l-5,12.8h-18.1l29.9-69.3h18.1L933,382h-18.8L909.3,369.2z M904.1,355.9l-9.9-25.6
			l-10.1,25.6H904.1z"/>
		<path class="st31" d="M985,326.9h-20.9V382h-17.6v-55.1h-20.7v-14.3H985V326.9z"/>
		<path class="st31" d="M1010.1,382h-17.6v-69.3h17.6V382z"/>
		<path class="st31" d="M1056.9,312.1c10.8,0,19.7,3.3,26.8,10c7.1,6.7,10.7,15.1,10.7,25.1c0,10.1-3.6,18.5-10.7,25.3
			c-7.2,6.8-16.1,10.2-26.8,10.2c-10.7,0-19.6-3.4-26.7-10.1c-7.1-6.8-10.7-15.2-10.7-25.4c0-10.1,3.6-18.5,10.7-25.1
			C1037.3,315.4,1046.2,312.1,1056.9,312.1z M1057.1,326.9c-5.4,0-10,2-13.9,5.9c-3.8,3.9-5.7,8.8-5.7,14.6c0,5.8,1.9,10.7,5.8,14.7
			s8.5,6,13.8,6s9.9-2,13.6-6s5.6-8.9,5.6-14.7c0-5.8-1.9-10.7-5.6-14.6C1066.9,328.8,1062.4,326.9,1057.1,326.9z"/>
		<path class="st31" d="M1167.6,382h-15.5l-31.9-42.7V382h-16.5v-69.3h15.5l32,42.8v-42.8h16.4V382z"/>
	</g>
	<g>
		<path class="st31" d="M631.4,474.1h-12.3l-2.9,7.7H612l11.4-29.4h1.8c1.2,0,2.1,0.7,2.6,2l10.5,27.4h-4.1L631.4,474.1z
			 M620.3,470.7h9.9l-4.9-13.3l0,0L620.3,470.7z"/>
		<path class="st31" d="M653.5,452.4h3.7l15.5,23v-23h3.9v29.4H673l-15.6-22.9v22.9h-3.9V452.4z"/>
		<path class="st31" d="M684.1,480c-1.5-1.4-2.2-3.3-2.2-5.6v-5.8c0-2.5,0.7-4.4,2.2-5.9s3.5-2.2,5.9-2.2h3.4c2.4,0,4.3,0.7,5.8,2.2
			s2.2,3.4,2.2,5.8v3.9h-15.7v2c0,1.3,0.4,2.3,1.2,3.1c0.8,0.8,1.8,1.2,3.1,1.2h3.2c1.3,0,2.3-0.3,3.1-1s1.2-1.5,1.2-2.6h3.8
			c0,2.1-0.7,3.8-2.2,5.1c-1.5,1.3-3.4,1.9-5.9,1.9H690C687.6,482.1,685.6,481.4,684.1,480z M697.5,469.3v-0.8
			c0-1.4-0.4-2.5-1.1-3.4c-0.7-0.8-1.7-1.3-2.9-1.3h-3.4c-1.3,0-2.3,0.4-3.1,1.3s-1.2,2.1-1.2,3.5v0.6L697.5,469.3L697.5,469.3z"/>
		<path class="st31" d="M733,460.9l-4.4,18.2c-0.2,1-0.6,1.6-1.1,2.1c-0.5,0.4-1.1,0.7-1.8,0.7h-1.8l-5.1-15l-5.2,15h-1.8
			c-0.8,0-1.4-0.2-1.8-0.7c-0.5-0.4-0.8-1.1-1-2.1l-4.5-18.2h4.1L712,477l5.3-15.6h1.5c0.5,0,0.9,0.1,1.2,0.4s0.5,0.6,0.7,1.1
			l4.7,14.2l3.4-16.2H733z"/>
		<path class="st31" d="M749.3,481c-0.6-0.6-0.9-1.3-0.9-2.3v-26.3h4v25.9h16v3.5h-16.8C750.7,481.8,749.9,481.5,749.3,481z"/>
		<path class="st31" d="M773,457.3c-0.5-0.5-0.8-1.1-0.8-1.9s0.3-1.4,0.8-1.9s1.2-0.7,2-0.7s1.5,0.2,2,0.7s0.7,1.1,0.7,1.9
			s-0.2,1.4-0.7,1.9s-1.1,0.7-2,0.7C774.1,458.1,773.5,457.8,773,457.3z M773,460.9h3.9v21H773V460.9z"/>
		<path class="st31" d="M785.6,464.3H782v-3.4h3.6v-1.6c0-2.3,0.6-4,1.9-5.2s3.1-1.8,5.5-1.8h2.1v3.4H793c-1.2,0-2,0.3-2.6,0.9
			s-0.8,1.5-0.8,2.8v1.5h5v3.4h-5v17.6h-3.9v-17.6H785.6z"/>
		<path class="st31" d="M799.2,480c-1.5-1.4-2.2-3.3-2.2-5.6v-5.8c0-2.5,0.7-4.4,2.2-5.9s3.5-2.2,5.9-2.2h3.4c2.4,0,4.3,0.7,5.8,2.2
			s2.2,3.4,2.2,5.8v3.9h-15.7v2c0,1.3,0.4,2.3,1.2,3.1c0.8,0.8,1.8,1.2,3.1,1.2h3.2c1.3,0,2.3-0.3,3.1-1s1.2-1.5,1.2-2.6h3.8
			c0,2.1-0.7,3.8-2.2,5.1s-3.4,1.9-5.9,1.9h-3.2C802.7,482.1,800.7,481.4,799.2,480z M812.6,469.3v-0.8c0-1.4-0.4-2.5-1.1-3.4
			s-1.7-1.3-2.9-1.3h-3.4c-1.3,0-2.3,0.4-3.1,1.3s-1.2,2.1-1.2,3.5v0.6L812.6,469.3L812.6,469.3z"/>
		<path class="st31" d="M834.7,464.3h-3.6v-3.4h3.6v-1.6c0-2.3,0.6-4,1.9-5.2c1.3-1.2,3.1-1.8,5.5-1.8h2.1v3.4h-2.1
			c-1.2,0-2,0.3-2.6,0.9s-0.8,1.5-0.8,2.8v1.5h5v3.4h-5v17.6h-3.9v-17.6H834.7z"/>
		<path class="st31" d="M848.3,479.9c-1.5-1.5-2.2-3.4-2.2-5.8v-5.5c0-2.4,0.8-4.4,2.3-5.9s3.5-2.2,6-2.2h3.5c2.5,0,4.5,0.7,6,2.2
			s2.3,3.4,2.3,5.9v5.5c0,2.4-0.8,4.4-2.3,5.8c-1.5,1.5-3.5,2.2-6,2.2h-3.6C851.8,482.1,849.8,481.4,848.3,479.9z M857.8,478.7
			c1.3,0,2.4-0.4,3.2-1.3s1.2-2,1.2-3.5v-5.2c0-1.5-0.4-2.6-1.2-3.5s-1.9-1.3-3.2-1.3h-3.5c-1.3,0-2.4,0.4-3.2,1.3s-1.2,2-1.2,3.5
			v5.2c0,1.5,0.4,2.6,1.2,3.5s1.8,1.3,3.2,1.3H857.8z"/>
		<path class="st31" d="M871.2,460.9h3.7v3.1c0.6-0.9,1.4-1.7,2.5-2.3c1.1-0.6,2.2-0.9,3.4-0.9h2.2v3.5h-2.2c-1.7,0-3.1,0.5-4.1,1.6
			s-1.6,2.4-1.6,4.1v11.8h-3.9L871.2,460.9L871.2,460.9z"/>
		<path class="st31" d="M906.1,470.5l-10.8-18.1h4.3l8.5,14.4l8.5-14.4h4.3l-10.8,18.1v11.3h-4V470.5z"/>
		<path class="st31" d="M921.3,479.9c-1.5-1.5-2.2-3.4-2.2-5.8v-5.5c0-2.4,0.8-4.4,2.3-5.9s3.5-2.2,6-2.2h3.5c2.5,0,4.5,0.7,6,2.2
			s2.3,3.4,2.3,5.9v5.5c0,2.4-0.8,4.4-2.3,5.8c-1.5,1.5-3.5,2.2-6,2.2h-3.6C924.8,482.1,922.8,481.4,921.3,479.9z M930.8,478.7
			c1.3,0,2.4-0.4,3.2-1.3s1.2-2,1.2-3.5v-5.2c0-1.5-0.4-2.6-1.2-3.5s-1.9-1.3-3.2-1.3h-3.5c-1.3,0-2.4,0.4-3.2,1.3s-1.2,2-1.2,3.5
			v5.2c0,1.5,0.4,2.6,1.2,3.5s1.8,1.3,3.2,1.3H930.8z"/>
		<path class="st31" d="M945.8,480.1c-1.2-1.4-1.9-3.2-1.9-5.4v-13.8h3.9v13.9c0,1.2,0.3,2.1,0.9,2.9c0.6,0.7,1.4,1.1,2.3,1.1h2.5
			c1.2,0,2.3-0.5,3.2-1.4c1-1,1.6-2.2,1.9-3.6V461h3.9v21h-3.7v-3c-0.7,1-1.5,1.8-2.5,2.4s-2,0.9-3,0.9h-2.7
			C948.7,482.1,947,481.5,945.8,480.1z"/>
		<path class="st31" d="M968.5,460.9h3.7v3.1c0.6-0.9,1.4-1.7,2.5-2.3c1.1-0.6,2.2-0.9,3.4-0.9h2.2v3.5h-2.2c-1.7,0-3.1,0.5-4.1,1.6
			s-1.6,2.4-1.6,4.1v11.8h-3.9L968.5,460.9L968.5,460.9z"/>
		<path class="st31" d="M996.1,480.9c-0.6-0.6-0.9-1.3-0.9-2.3v-26.2h13.1c2.5,0,4.6,0.6,6.2,1.8c1.6,1.2,2.3,2.8,2.3,4.9v2.2
			c0,1-0.2,2-0.7,2.9s-1.1,1.6-2,2.2l0,0c1.3,0.4,2.4,1.1,3.3,2.2s1.2,2.3,1.2,3.6v2.1c0,2.3-0.8,4.1-2.3,5.5s-3.6,2.1-6.2,2.1
			h-11.8C997.5,481.8,996.7,481.5,996.1,480.9z M1009,465.3c1.2,0,2.1-0.4,2.8-1.1s1.1-1.7,1.1-3v-1.9c0-1-0.4-1.8-1.3-2.4
			c-0.8-0.6-1.9-0.9-3.3-0.9h-9.1v9.4h9.8V465.3z M1009.8,478.3c1.5,0,2.7-0.4,3.6-1.1c0.9-0.8,1.3-1.8,1.3-3v-2
			c0-1-0.4-1.9-1.1-2.5s-1.8-1-3-1h-11.4v9.6H1009.8z"/>
		<path class="st31" d="M1024.9,480.1c-1.2-1.4-1.9-3.2-1.9-5.4v-13.8h3.9v13.9c0,1.2,0.3,2.1,0.9,2.9c0.6,0.7,1.4,1.1,2.3,1.1h2.5
			c1.2,0,2.3-0.5,3.2-1.4c1-1,1.6-2.2,1.9-3.6V461h3.9v21h-3.7v-3c-0.7,1-1.5,1.8-2.5,2.4s-2,0.9-3,0.9h-2.7
			C1027.8,482.1,1026.1,481.5,1024.9,480.1z"/>
		<path class="st31" d="M1048.6,480.3c-1.4-1.2-2.1-2.9-2.1-4.9h3.8c0,1,0.3,1.9,1,2.5s1.6,1,2.7,1h3.7c1.1,0,1.9-0.2,2.6-0.6
			c0.6-0.4,1-0.9,1-1.6v-1.2c0-0.4-0.2-0.8-0.6-1.2c-0.4-0.3-0.9-0.6-1.4-0.7l-7.3-1.3c-1.5-0.3-2.8-0.9-3.7-1.7
			c-0.9-0.9-1.4-1.9-1.4-3.1V466c0-1.7,0.7-3,2-4s3.1-1.5,5.3-1.5h3.5c2.1,0,3.8,0.6,5.1,1.7c1.3,1.1,1.9,2.7,1.9,4.6h-3.8
			c0-0.9-0.3-1.6-0.9-2.2c-0.6-0.5-1.3-0.8-2.2-0.8h-3.5c-1,0-1.9,0.2-2.5,0.6s-0.9,1-0.9,1.7v1c0,0.4,0.2,0.8,0.6,1.2
			c0.4,0.3,0.9,0.6,1.5,0.7l7.3,1.3c1.5,0.3,2.6,0.8,3.5,1.7c0.9,0.9,1.4,1.9,1.4,3v1.6c0,1.6-0.7,2.9-2.1,3.9s-3.2,1.5-5.4,1.5
			h-3.7C1051.8,482.1,1049.9,481.5,1048.6,480.3z"/>
		<path class="st31" d="M1070.6,457.3c-0.5-0.5-0.8-1.1-0.8-1.9s0.3-1.4,0.8-1.9s1.2-0.7,2-0.7s1.5,0.2,2,0.7s0.7,1.1,0.7,1.9
			s-0.2,1.4-0.7,1.9s-1.1,0.7-2,0.7S1071.1,457.8,1070.6,457.3z M1070.6,460.9h3.9v21h-3.9V460.9z"/>
		<path class="st31" d="M1081.1,460.9h3.7v2.9c0.6-1,1.4-1.7,2.5-2.3c1-0.6,2-0.9,3-0.9h2.8c2,0,3.6,0.7,4.9,2
			c1.2,1.3,1.9,3.1,1.9,5.3v14h-3.9v-14c0-1.1-0.3-2.1-0.9-2.8s-1.4-1.1-2.3-1.1h-2.6c-1.2,0-2.3,0.5-3.3,1.4s-1.6,2.1-1.9,3.6v12.9
			h-3.9L1081.1,460.9L1081.1,460.9z"/>
		<path class="st31" d="M1106.9,480c-1.5-1.4-2.2-3.3-2.2-5.6v-5.8c0-2.5,0.7-4.4,2.2-5.9s3.5-2.2,5.9-2.2h3.4
			c2.4,0,4.3,0.7,5.8,2.2s2.2,3.4,2.2,5.8v3.9h-15.7v2c0,1.3,0.4,2.3,1.2,3.1c0.8,0.8,1.8,1.2,3.1,1.2h3.2c1.3,0,2.3-0.3,3.1-1
			s1.2-1.5,1.2-2.6h3.8c0,2.1-0.7,3.8-2.2,5.1c-1.5,1.3-3.4,1.9-5.9,1.9h-3.2C1110.4,482.1,1108.4,481.4,1106.9,480z M1120.4,469.3
			v-0.8c0-1.4-0.4-2.5-1.1-3.4c-0.7-0.8-1.7-1.3-2.9-1.3h-3.4c-1.3,0-2.3,0.4-3.1,1.3c-0.8,0.9-1.2,2.1-1.2,3.5v0.6L1120.4,469.3
			L1120.4,469.3z"/>
		<path class="st31" d="M1130.1,480.3c-1.4-1.2-2.1-2.9-2.1-4.9h3.8c0,1,0.3,1.9,1,2.5s1.6,1,2.7,1h3.7c1.1,0,1.9-0.2,2.6-0.6
			c0.6-0.4,1-0.9,1-1.6v-1.2c0-0.4-0.2-0.8-0.6-1.2c-0.4-0.3-0.9-0.6-1.4-0.7l-7.3-1.3c-1.5-0.3-2.8-0.9-3.7-1.7
			c-0.9-0.9-1.4-1.9-1.4-3.1V466c0-1.7,0.7-3,2-4s3.1-1.5,5.3-1.5h3.5c2.1,0,3.8,0.6,5.1,1.7c1.3,1.1,1.9,2.7,1.9,4.6h-3.8
			c0-0.9-0.3-1.6-0.9-2.2s-1.3-0.8-2.2-0.8h-3.5c-1,0-1.9,0.2-2.5,0.6s-0.9,1-0.9,1.7v1c0,0.4,0.2,0.8,0.6,1.2
			c0.4,0.3,0.9,0.6,1.5,0.7l7.3,1.3c1.5,0.3,2.6,0.8,3.5,1.7c0.9,0.9,1.4,1.9,1.4,3v1.6c0,1.6-0.7,2.9-2.1,3.9s-3.2,1.5-5.4,1.5
			h-3.7C1133.3,482.1,1131.5,481.5,1130.1,480.3z"/>
		<path class="st31" d="M1152.4,480.3c-1.4-1.2-2.1-2.9-2.1-4.9h3.8c0,1,0.3,1.9,1,2.5s1.6,1,2.7,1h3.7c1.1,0,1.9-0.2,2.6-0.6
			c0.6-0.4,1-0.9,1-1.6v-1.2c0-0.4-0.2-0.8-0.6-1.2c-0.4-0.3-0.9-0.6-1.4-0.7l-7.3-1.3c-1.5-0.3-2.8-0.9-3.7-1.7
			c-0.9-0.9-1.4-1.9-1.4-3.1V466c0-1.7,0.7-3,2-4s3.1-1.5,5.3-1.5h3.5c2.1,0,3.8,0.6,5.1,1.7c1.3,1.1,1.9,2.7,1.9,4.6h-3.8
			c0-0.9-0.3-1.6-0.9-2.2s-1.3-0.8-2.2-0.8h-3.5c-1,0-1.9,0.2-2.5,0.6s-0.9,1-0.9,1.7v1c0,0.4,0.2,0.8,0.6,1.2
			c0.4,0.3,0.9,0.6,1.5,0.7l7.3,1.3c1.5,0.3,2.6,0.8,3.5,1.7c0.9,0.9,1.4,1.9,1.4,3v1.6c0,1.6-0.7,2.9-2.1,3.9s-3.2,1.5-5.4,1.5
			h-3.7C1155.5,482.1,1153.7,481.5,1152.4,480.3z"/>
	</g>
</g>
</svg>
